<svg width="573" height="313" viewBox="0 0 573 313" fill="none" xmlns="http://www.w3.org/2000/svg">
<path d="M106.179 118.336L91.5357 117.126L76.2559 288.792H124.325L124.961 175.954C126.153 155.175 119.474 134.689 106.179 118.336Z" fill="#77C8D6"/>
<path d="M227.642 165.612C227.641 155.453 223.702 145.665 216.603 138.183C209.504 130.7 199.764 126.069 189.307 125.205L182.536 124.624C187.246 134.82 193.537 157.434 193.183 205.21V288.786H227.63L227.642 165.612Z" fill="#77C8D6"/>
<path d="M182.536 124.647L106.178 118.336C119.466 134.68 126.144 155.152 124.961 175.919L124.294 288.792H193.195V205.216C193.537 157.458 187.246 134.843 182.536 124.647Z" fill="#3B1534"/>
<path d="M202.695 103.83L120.81 97.7229C114.685 97.2682 108.997 94.4771 104.998 89.9635C100.999 85.4499 99.0162 79.5835 99.4851 73.6545L102.892 30.7119C103.227 26.4917 104.418 22.3767 106.396 18.602C108.374 14.8272 111.101 11.4666 114.42 8.712C117.74 5.95742 121.588 3.86284 125.744 2.54788C129.9 1.23292 134.283 0.723326 138.643 1.0482L184.669 4.45662C188.055 4.70596 191.357 5.59912 194.387 7.08501C197.416 8.57089 200.113 10.6203 202.324 13.1161C204.534 15.6119 206.215 18.5051 207.269 21.6301C208.324 24.7552 208.731 28.0508 208.469 31.3285L202.695 103.83Z" fill="#F2EADA"/>
<path d="M83.3219 100.742C96.8513 100.742 107.819 91.4789 107.819 80.0527C107.819 68.6264 96.8513 59.3636 83.3219 59.3636C69.7926 59.3636 58.825 68.6264 58.825 80.0527C58.825 91.4789 69.7926 100.742 83.3219 100.742Z" fill="#F2EADA"/>
<path d="M357.169 231.297L328.19 227.656L339.414 155.09C340.621 147.274 344.578 140.101 350.616 134.782C356.655 129.463 364.405 126.325 372.557 125.898L357.169 231.297Z" fill="#77C8D6"/>
<path d="M386.311 273.315L372.058 282.702C366.19 286.571 359.592 289.283 352.641 290.682C345.69 292.081 338.522 292.141 331.547 290.858C324.572 289.574 317.926 286.973 311.99 283.202C306.054 279.432 300.944 274.566 296.951 268.883L250.811 203.198C249.064 200.711 247.839 197.916 247.208 194.971C246.576 192.026 246.55 188.99 247.131 186.036C247.712 183.081 248.888 180.267 250.593 177.752C252.298 175.238 254.497 173.073 257.066 171.382L276.894 158.336C279.463 156.643 282.35 155.457 285.392 154.845C288.434 154.232 291.57 154.206 294.623 154.768C297.675 155.33 300.583 156.468 303.18 158.118C305.778 159.769 308.014 161.898 309.761 164.385L386.311 273.315Z" fill="#77C8D6"/>
<path d="M288.209 154.433C288.209 154.433 289.374 141.393 277.73 123.071C273.71 115.824 269.786 108.53 265.767 101.288C262.294 95.0124 259.157 87.0323 254.002 81.8673C250.998 78.8311 245.962 75.6554 242.297 82.9026C240.819 80.7622 239.337 78.6295 237.851 76.5046C236.132 74.0093 233.194 70.9732 229.793 71.421C222.793 72.3284 226.344 82.2105 227.871 86.0377C228.153 86.9567 228.429 87.8757 228.712 88.7889C228.712 88.7889 220.198 83.9205 219.927 91.5749C219.887 93.2919 220.24 94.9961 220.961 96.5654L233.338 124.298C233.338 124.298 208.925 128.073 201.553 131.144C201.09 131.336 200.622 131.516 200.147 131.667C198.567 132.185 194.781 133.79 194.829 137.28C194.88 138.585 195.446 139.821 196.411 140.734C197.376 141.646 198.666 142.165 200.015 142.184C202.016 142.236 205.026 141.945 209.526 140.863C211.894 140.282 214.279 139.81 216.671 139.368L221.351 138.496C224.058 137.965 226.87 138.274 229.385 139.38C239.329 143.882 236.883 157.12 231.464 164.001C229.499 166.496 227.258 168.776 225.347 171.318C223.544 173.714 221.141 176.099 220.702 179.147C220.457 180.553 220.791 181.996 221.634 183.166C222.267 183.99 223.152 184.6 224.163 184.911C226.537 185.557 228.97 183.864 230.52 182.724C241.107 175.081 242.213 173.848 244.574 173.365C248.079 172.692 251.716 173.253 254.831 174.947L288.209 154.433Z" fill="#F774AA"/>
<path d="M257.974 121.198C257.974 121.198 247.927 142.439 268.471 152.607" stroke="#3B1534" stroke-width="5" stroke-miterlimit="10" stroke-linecap="round"/>
<path d="M242.297 82.9202L253.894 107.553" stroke="#3B1534" stroke-width="5" stroke-miterlimit="10" stroke-linecap="round"/>
<path d="M228.802 88.9227C232.94 97.2169 237.082 105.509 241.228 113.8" stroke="#3B1534" stroke-width="5" stroke-miterlimit="10" stroke-linecap="round"/>
<path d="M213.366 144.4H170.182C166.857 144.4 164.161 147.009 164.161 150.228V186.039C164.161 189.258 166.857 191.867 170.182 191.867H213.366C216.691 191.867 219.386 189.258 219.386 186.039V150.228C219.386 147.009 216.691 144.4 213.366 144.4Z" fill="#F2EADA"/>
<path d="M172.327 180.607C172.4 181.449 172.797 182.233 173.439 182.805C174.081 183.377 174.922 183.695 175.794 183.695C176.667 183.695 177.508 183.377 178.15 182.805C178.792 182.233 179.189 181.449 179.261 180.607V167.863H172.327V180.607Z" stroke="#77C8D6" stroke-width="5" stroke-miterlimit="10" stroke-linecap="round"/>
<path d="M179.261 155.643C179.261 154.75 178.895 153.893 178.242 153.262C177.59 152.63 176.705 152.275 175.782 152.275C174.859 152.275 173.975 152.63 173.322 153.262C172.67 153.893 172.303 154.75 172.303 155.643V164.949H179.261V155.643Z" stroke="#77C8D6" stroke-width="5" stroke-miterlimit="10" stroke-linecap="round"/>
<path d="M195.442 155.643C195.442 154.75 195.076 153.893 194.423 153.262C193.771 152.63 192.886 152.275 191.963 152.275C191.04 152.275 190.156 152.63 189.503 153.262C188.851 153.893 188.484 154.75 188.484 155.643V164.949H195.442V155.643Z" stroke="#77C8D6" stroke-width="5" stroke-miterlimit="10" stroke-linecap="round"/>
<path d="M188.484 180.607C188.484 181.5 188.851 182.357 189.503 182.988C190.156 183.62 191.04 183.974 191.963 183.974C192.886 183.974 193.771 183.62 194.423 182.988C195.076 182.357 195.442 181.5 195.442 180.607V167.863H188.484V180.607Z" stroke="#77C8D6" stroke-width="5" stroke-miterlimit="10" stroke-linecap="round"/>
<path d="M211.605 155.643C211.605 154.75 211.239 153.893 210.586 153.262C209.934 152.63 209.049 152.275 208.126 152.275C207.204 152.275 206.319 152.63 205.666 153.262C205.014 153.893 204.647 154.75 204.647 155.643V164.949H211.605V155.643Z" stroke="#77C8D6" stroke-width="5" stroke-miterlimit="10" stroke-linecap="round"/>
<path d="M204.647 180.607C204.647 181.5 205.014 182.357 205.666 182.988C206.319 183.62 207.204 183.974 208.126 183.974C209.049 183.974 209.934 183.62 210.586 182.988C211.239 182.357 211.605 181.5 211.605 180.607V167.863H204.647V180.607Z" stroke="#77C8D6" stroke-width="5" stroke-miterlimit="10" stroke-linecap="round"/>
<path d="M180.805 163.53H170.813V169.364H180.805V163.53Z" fill="#FFACD2"/>
<path d="M196.95 163.53H186.97V169.364H196.95V163.53Z" fill="#FFACD2"/>
<path d="M213.101 163.53H203.133V169.364H213.101V163.53Z" fill="#FFACD2"/>
<path d="M442.935 97.5833L436.687 98.2871L428.311 28.618L459.429 25.1282L464.915 70.7289C465.676 77.1109 463.789 83.5244 459.667 88.5599C455.546 93.5954 449.528 96.8409 442.935 97.5833Z" fill="#3B1534"/>
<path d="M556.014 121.695C564.916 108.847 550.873 84.6281 524.647 67.6009C498.421 50.5736 469.944 47.1859 461.042 60.0341C452.14 72.8824 466.184 97.1013 492.41 114.129C518.635 131.156 547.112 134.543 556.014 121.695Z" fill="#3B1534"/>
<path d="M443.957 106L377.611 111.7C375.327 111.9 373.025 111.661 370.837 110.998C368.649 110.335 366.618 109.261 364.86 107.836C363.101 106.412 361.651 104.666 360.591 102.698C359.531 100.73 358.883 98.5788 358.683 96.3678L353.576 40.7163L437.312 33.5214L443.957 106Z" fill="#F774AA"/>
<path d="M440.526 76.0218C449.108 76.0218 456.064 69.2876 456.064 60.9806C456.064 52.6735 449.108 45.9393 440.526 45.9393C431.945 45.9393 424.988 52.6735 424.988 60.9806C424.988 69.2876 431.945 76.0218 440.526 76.0218Z" fill="#F774AA"/>
<path d="M439.943 67.6055C442.522 67.6055 444.612 65.5821 444.612 63.0861C444.612 60.5902 442.522 58.5668 439.943 58.5668C437.365 58.5668 435.275 60.5902 435.275 63.0861C435.275 65.5821 437.365 67.6055 439.943 67.6055Z" stroke="#3B1534" stroke-width="5" stroke-miterlimit="10" stroke-linecap="round"/>
<path d="M445.778 54.3906C445.778 54.3906 437.185 55.5539 435.779 61.0853" stroke="#3B1534" stroke-width="5" stroke-miterlimit="10" stroke-linecap="round"/>
<path d="M378.536 91.8774C378.536 91.8774 383.373 96.4375 389.868 90.8944" stroke="#3B1534" stroke-width="5" stroke-miterlimit="10" stroke-linecap="round"/>
<path d="M473.081 156.032C473.345 147.616 474.529 135.064 483.698 124.374C486.57 121.018 494.093 117.976 496.25 116.545C484.906 117.086 468.094 118.121 456.413 118.871C455.576 122.152 454.739 125.432 453.901 128.713C448.992 147.907 446.973 172.79 423.552 179.095C406.788 183.602 387.597 173.656 388.432 155.334C388.786 147.599 391.436 140.212 393.365 132.796C394.164 129.771 394.903 126.729 395.63 123.682C387.711 124.426 379.876 125.202 372.125 126.008L350.83 189.605C350.83 189.605 344.221 215.523 350.83 237.614L364.89 295.958L482.496 298.965C484.876 277.468 487.257 255.97 489.64 234.473L475.4 176.972C473.648 170.126 472.868 163.082 473.081 156.032Z" fill="#F2EADA"/>
<path d="M388.444 155.334C387.609 173.656 406.8 183.602 423.564 179.095C446.997 172.79 449.004 147.907 453.913 128.713C454.747 125.432 455.584 122.152 456.425 118.871C448.966 119.356 441.442 119.881 433.851 120.448C420.9 121.425 408.164 122.503 395.642 123.682C394.915 126.729 394.176 129.771 393.377 132.796C391.424 140.235 388.798 147.599 388.444 155.334Z" fill="#77C8D6"/>
<path d="M362.222 250.951C361.687 250.951 361.173 250.745 360.795 250.378C360.416 250.012 360.203 249.515 360.203 248.996V242.883H364.241V248.996C364.242 249.253 364.19 249.508 364.089 249.745C363.988 249.983 363.839 250.198 363.652 250.38C363.464 250.562 363.241 250.706 362.996 250.803C362.75 250.901 362.488 250.951 362.222 250.951Z" fill="#FFACD2"/>
<path d="M366.693 209.032C366.691 207.884 366.22 206.785 365.382 205.973C364.544 205.162 363.407 204.706 362.222 204.704C361.037 204.706 359.901 205.162 359.063 205.973C358.225 206.785 357.754 207.884 357.752 209.032V234.182H366.693V209.032Z" fill="#3B1534"/>
<path d="M357.752 234.182V240.946C357.752 241.46 357.963 241.953 358.338 242.316C358.713 242.679 359.222 242.883 359.753 242.883H364.698C364.96 242.883 365.22 242.833 365.463 242.736C365.705 242.638 365.925 242.495 366.111 242.315C366.296 242.136 366.443 241.922 366.543 241.687C366.643 241.452 366.694 241.2 366.693 240.946V234.182H357.752Z" fill="#FFACD2"/>
<path d="M408.609 294.766V230.244" stroke="#3B1534" stroke-width="5" stroke-miterlimit="10" stroke-linecap="round"/>
<path d="M438.123 219.432L419.604 191.001C418.283 188.93 416.397 187.251 414.155 186.15C411.697 184.987 408.482 184.306 405.448 186.342C405.448 186.342 397.679 179.362 390.919 183.405C390.919 183.405 382.507 179.223 376.144 184.312C373.266 186.639 370.364 188.901 367.276 190.937L356.514 198.015C356.514 198.015 351.81 200.697 355.517 203.995C355.517 203.995 357.319 205.897 363.28 203.524C364.343 203.093 365.407 202.663 366.488 202.267L373.633 199.673C374.877 199.219 376.243 199.189 377.508 199.586C378.772 199.984 379.859 200.785 380.591 201.86C381.298 202.896 381.765 204.068 381.958 205.295C382.151 206.522 382.065 207.776 381.708 208.968C381.351 210.161 380.73 211.264 379.889 212.201C379.047 213.138 378.005 213.886 376.835 214.395C375.814 214.831 374.744 215.273 373.645 215.692C369.532 217.259 365.211 218.254 360.81 218.646C358.473 218.856 355.216 219.397 353.065 220.775C352.472 221.168 351.993 221.701 351.674 222.324C351.354 222.947 351.205 223.638 351.24 224.333C351.275 225.028 351.493 225.702 351.873 226.292C352.254 226.882 352.784 227.367 353.414 227.702C355.954 229.111 358.791 229.946 361.712 230.145C369.77 230.716 377.565 233.169 384.43 237.294C393.497 242.651 405.304 248.345 412.292 246.6L438.123 219.432Z" fill="#F774AA"/>
<path d="M390.913 183.405L404.727 203.57" stroke="#3B1534" stroke-width="5" stroke-miterlimit="10" stroke-linecap="round"/>
<path d="M405.442 186.342L412.238 196.026" stroke="#3B1534" stroke-width="5" stroke-miterlimit="10" stroke-linecap="round"/>
<path d="M559.153 271.675C558.643 272.559 546.956 292.032 523.559 292.555C515.944 292.697 508.433 290.828 501.832 287.149C495.232 283.47 489.792 278.121 486.095 271.675C481.669 235.535 477.242 199.394 472.816 163.251C467.925 141.561 477.16 119.878 499.566 115.149C503.73 114.387 514.305 113.043 525.331 118.313C545.226 127.823 548.104 150.03 548.302 151.787C554.052 188.43 554.25 233.856 560.001 270.482C560.042 270.748 559.978 271.019 559.82 271.24C559.663 271.462 559.425 271.617 559.153 271.675Z" fill="#77C8D6"/>
<path d="M520.38 310.854C503.081 315.21 484.665 311.726 469.956 301.891L414.677 264.922C408.789 260.984 406.902 253.661 410.333 248.054L429.266 216.977C432.655 211.422 440.118 209.328 446.583 212.114L549.143 256.319C553.639 258.267 557.155 261.859 558.922 266.309C560.688 270.76 560.562 275.707 558.571 280.068C551.306 295.882 537.012 306.666 520.38 310.854Z" fill="#77C8D6"/>
<path d="M392.662 280.306C395.005 280.306 396.904 278.468 396.904 276.2C396.904 273.932 395.005 272.093 392.662 272.093C390.319 272.093 388.42 273.932 388.42 276.2C388.42 278.468 390.319 280.306 392.662 280.306Z" fill="#3B1534"/>
<path d="M392.662 252.12C395.005 252.12 396.904 250.281 396.904 248.013C396.904 245.745 395.005 243.907 392.662 243.907C390.319 243.907 388.42 245.745 388.42 248.013C388.42 250.281 390.319 252.12 392.662 252.12Z" fill="#3B1534"/>
<path d="M183.9 115.277L119.998 104.993L128.555 40.3382C128.788 38.5702 129.383 36.865 130.305 35.3218C131.226 33.7785 132.455 32.4282 133.921 31.3493C135.386 30.2705 137.059 29.4847 138.842 29.0378C140.624 28.5908 142.481 28.4917 144.303 28.7461L198.609 36.3598C201.143 36.7136 203.444 37.9825 205.052 39.9117C206.659 41.8408 207.452 44.2873 207.273 46.7595L203.403 100.375C203.236 102.632 202.584 104.831 201.489 106.831C200.394 108.83 198.881 110.587 197.046 111.99C195.211 113.392 193.094 114.408 190.831 114.974C188.567 115.54 186.207 115.643 183.9 115.277Z" fill="#F774AA"/>
<path d="M170.398 96.5247L122.083 89.9812L118.929 111.787L167.184 118.761L170.398 96.5247Z" fill="#F774AA"/>
<path d="M118.929 111.787L117.457 121.96L165.772 128.503L167.184 118.761L118.929 111.787Z" fill="#3B1534"/>
<path d="M136.432 130.423L138.757 116.074" stroke="#77C8D6" stroke-width="5" stroke-miterlimit="10" stroke-linecap="round"/>
<path d="M151.363 132.685L153.689 118.336" stroke="#77C8D6" stroke-width="5" stroke-miterlimit="10" stroke-linecap="round"/>
<path d="M154.53 41.1176L197.9 46.3872" stroke="#3B1534" stroke-width="5" stroke-miterlimit="10" stroke-linecap="round"/>
<path d="M159.559 50.1621L191.506 53.5821" stroke="#3B1534" stroke-width="5" stroke-miterlimit="10" stroke-linecap="round"/>
<path d="M122.991 76.0102C130.686 76.0102 136.924 69.9713 136.924 62.522C136.924 55.0726 130.686 49.0337 122.991 49.0337C115.295 49.0337 109.057 55.0726 109.057 62.522C109.057 69.9713 115.295 76.0102 122.991 76.0102Z" fill="#F774AA"/>
<path d="M171.87 90.7257C171.87 90.7257 176.112 96.2397 183.209 92.2263" stroke="#3B1534" stroke-width="5" stroke-miterlimit="10" stroke-linecap="round"/>
<path d="M166.643 78.4241C166.643 78.4241 157.853 89.0099 163.639 102.667" stroke="#3B1534" stroke-width="5" stroke-miterlimit="10" stroke-linecap="round"/>
<path d="M191.356 81.8441C193.464 86.8546 193.74 92.412 192.137 97.595C191.149 100.631 189.511 103.431 187.331 105.814" stroke="#3B1534" stroke-width="5" stroke-miterlimit="10" stroke-linecap="round"/>
<path d="M124.961 68.4024C127.54 68.4024 129.63 66.379 129.63 63.883C129.63 61.387 127.54 59.3636 124.961 59.3636C122.383 59.3636 120.293 61.387 120.293 63.883C120.293 66.379 122.383 68.4024 124.961 68.4024Z" stroke="#3B1534" stroke-width="5" stroke-miterlimit="10" stroke-linecap="round"/>
<path d="M119.133 55.1584C119.133 55.1584 127.719 56.3217 129.131 61.8531" stroke="#3B1534" stroke-width="5" stroke-miterlimit="10" stroke-linecap="round"/>
<path d="M81.2069 247.403C75.0782 263.898 59.0112 274.839 41.5503 274.635C22.2567 274.408 5.16829 260.606 1.23267 241.481L5.43867 188.61C6.24274 178.444 9.10758 168.531 13.8696 159.436C18.6316 150.342 25.1975 142.244 33.1925 135.606C41.1874 128.968 50.4547 123.92 60.4653 120.749C70.4759 117.578 81.0336 116.347 91.5357 117.126L81.2069 247.403Z" fill="#77C8D6"/>
<path d="M162.677 302.088C162.622 303.898 161.858 305.619 160.54 306.903C159.223 308.187 157.45 308.939 155.581 309.004L55.2679 312.576C47.5177 312.889 39.787 311.608 32.5855 308.818C21.1014 304.324 11.6459 296.019 5.91335 285.39C1.44267 276.96 -0.556455 267.505 0.133095 258.052C0.533668 252.236 0.93424 246.42 1.33481 240.603L157.191 253.51C159.077 253.655 160.832 254.496 162.095 255.859C163.357 257.222 164.03 259.003 163.975 260.833L162.677 302.088Z" fill="#77C8D6"/>
<path d="M144.838 259.111V302.222" stroke="#3B1534" stroke-width="5" stroke-miterlimit="10" stroke-linecap="round"/>
<path d="M163.536 258.273C163.536 258.273 205.356 255.877 231.998 260.641C234.648 261.112 237.292 261.606 239.96 261.99C243.721 262.537 250.481 264.538 250.607 271.843C253.117 272.007 255.554 272.732 257.727 273.96C258.778 274.563 259.682 275.378 260.379 276.35C261.076 277.321 261.548 278.427 261.765 279.591C262.008 280.821 261.888 282.094 261.416 283.261C259.926 286.844 255.035 288.984 250.168 287.396C251.178 290.677 250.306 292.631 249.946 293.312C247.885 297.162 241.942 297.732 238.818 297.854C237.112 297.919 235.403 297.865 233.705 297.691L209.4 295.307C209.4 295.307 212.807 303.95 199.75 303.199C198.446 303.13 197.142 303.048 195.838 303.013L162.653 302.071L163.536 258.273Z" fill="#F774AA"/>
<path d="M212.981 268.51C219.895 269.138 226.813 269.759 233.735 270.372C239.343 270.864 244.967 271.354 250.607 271.843" stroke="#3B1534" stroke-width="5" stroke-miterlimit="10" stroke-linecap="round"/>
<path d="M213.083 282.255C218.395 282.681 223.891 283.238 229.571 283.924C236.781 284.814 243.661 285.867 250.192 287.024" stroke="#3B1534" stroke-width="5" stroke-miterlimit="10" stroke-linecap="round"/>
<path d="M191.278 293.399C193.429 293.608 195.592 293.829 197.761 294.05C201.671 294.457 205.552 294.882 209.406 295.324" stroke="#3B1534" stroke-width="5" stroke-miterlimit="10" stroke-linecap="round"/>
<path d="M108.348 235.659C110.999 235.659 113.149 233.578 113.149 231.012C113.149 228.445 110.999 226.365 108.348 226.365C105.696 226.365 103.547 228.445 103.547 231.012C103.547 233.578 105.696 235.659 108.348 235.659Z" fill="#3B1534"/>
<path d="M86.8851 190.844L81.207 247.403" stroke="#3B1534" stroke-width="5" stroke-miterlimit="10" stroke-linecap="round"/>
<path d="M461.55 44.0374L370.701 51.8489C364.769 52.3574 358.871 50.5647 354.304 46.865C349.738 43.1653 346.876 37.8614 346.348 32.1196L346.047 28.874C345.522 23.132 347.374 17.423 351.196 13.0023C355.018 8.58165 360.497 5.8112 366.428 5.30009L426.743 0.117658C430.753 -0.229171 434.795 0.192599 438.638 1.35886C442.48 2.52511 446.047 4.41299 449.135 6.91456C452.223 9.41613 454.772 12.4823 456.635 15.9379C458.498 19.3935 459.64 23.1706 459.994 27.0535L461.55 44.0374Z" fill="#3B1534"/>
<path d="M521.72 245.303L481.282 227.958" stroke="#3B1534" stroke-width="5" stroke-miterlimit="10" stroke-linecap="round"/>
<path d="M443.782 102.242L394.956 106.435L396.654 124.969L445.48 120.776L443.782 102.242Z" fill="#F774AA"/>
<path d="M395.336 110.228L420.62 107.512C420.922 107.485 421.224 107.564 421.47 107.735C421.717 107.905 421.893 108.155 421.966 108.44C422.038 108.725 422.003 109.025 421.866 109.287C421.73 109.549 421.501 109.755 421.221 109.868L396.213 120.11L395.336 110.228Z" fill="#3B1534"/>
<path d="M332.882 197.306L343.301 212.132" stroke="#3B1534" stroke-width="5" stroke-miterlimit="10" stroke-linecap="round"/>
<path d="M125.1 250.991L51.4885 245.303" stroke="#3B1534" stroke-width="5" stroke-miterlimit="10" stroke-linecap="round"/>
<path d="M100.17 65.0405C100.17 65.0405 107.146 70.4149 107.615 77.4586" stroke="#3B1534" stroke-width="5" stroke-miterlimit="10" stroke-linecap="round"/>
<path d="M168.055 112.729L167.184 118.761L143.149 109.99C142.995 109.937 142.866 109.83 142.79 109.69C142.714 109.55 142.695 109.387 142.737 109.234C142.78 109.08 142.881 108.949 143.02 108.864C143.158 108.78 143.325 108.75 143.486 108.78L168.055 112.729Z" fill="#3B1534"/>
</svg>
