<svg width="498" height="408" viewBox="0 0 498 408" fill="none" xmlns="http://www.w3.org/2000/svg">
<path d="M449.024 190.373C449.519 187.689 449.769 184.966 449.773 182.236C449.773 158.36 431.049 139.005 408.007 139.005C384.966 139.005 366.241 158.36 366.241 182.236C366.241 203.004 380.397 220.348 399.26 224.5C397.174 230.337 396.109 236.49 396.115 242.689C396.115 271.632 418.782 295.117 446.74 295.117C474.698 295.117 497.365 271.653 497.365 242.689C497.36 214.571 475.923 191.615 449.024 190.373Z" fill="#BD4632"/>
<path d="M448.955 190.764C439.505 190.236 430.102 192.427 421.858 197.077" stroke="#3B1534" stroke-width="5" stroke-miterlimit="10" stroke-linecap="round"/>
<path d="M184.476 131.649H102.726V272.723H184.476V131.649Z" fill="#F2EADA"/>
<path d="M278.558 45.1316H20.5795C10.8706 45.1316 3 53.0022 3 62.7111V255.85C3 265.559 10.8706 273.429 20.5795 273.429H278.558C288.267 273.429 296.137 265.559 296.137 255.85V62.7111C296.137 53.0022 288.267 45.1316 278.558 45.1316Z" stroke="#77C8D6" stroke-width="5" stroke-miterlimit="10" stroke-linecap="round"/>
<path d="M180.983 103.118L130.192 92.5416L123.884 122.822L174.991 131.857L180.983 103.118Z" fill="#BD4632"/>
<path d="M149.199 102.332L123.183 96.9231C120.99 96.4665 118.908 95.5822 117.057 94.3209C115.205 93.0596 113.621 91.4458 112.393 89.5719C111.166 87.698 110.319 85.6005 109.902 83.3994C109.485 81.1983 109.506 78.9367 109.964 76.7437L120.974 23.8929C122.521 16.4699 126.953 9.96545 133.296 5.81001C139.639 1.65456 147.372 0.188408 154.795 1.73398L169.518 4.80477L149.199 102.332Z" fill="#3B1534"/>
<path d="M190.527 127.273L125.88 115.647L142.764 21.8706L224.958 36.6682L211.23 112.903C210.388 117.553 207.734 121.678 203.852 124.372C199.97 127.066 195.177 128.11 190.527 127.273Z" fill="#BD4632"/>
<path d="M131.689 85.6618C140.317 85.6618 147.311 78.6679 147.311 70.0404C147.311 61.4129 140.317 54.4189 131.689 54.4189C123.062 54.4189 116.068 61.4129 116.068 70.0404C116.068 78.6679 123.062 85.6618 131.689 85.6618Z" fill="#BD4632"/>
<path d="M234.374 10.1385C230.565 10.0005 226.784 10.8267 223.38 12.5406C222.576 9.22412 220.759 6.24083 218.18 4.00623C215.601 1.77163 212.389 0.396978 208.992 0.0737601C205.595 -0.249458 202.182 0.494849 199.228 2.203C196.274 3.91115 193.926 6.4981 192.511 9.60351L163.622 3.58498L154.72 1.78744C151.077 1.0503 147.29 1.77231 144.174 3.79819C141.058 5.82408 138.861 8.99203 138.056 12.6208L138.029 12.7545L129.469 53.9481L135.712 55.2427C141.819 56.5084 148.179 55.2987 153.395 51.8793C158.611 48.4599 162.257 43.1103 163.531 37.0052L163.772 35.8657L182.256 39.7176C183.508 47.2394 191.934 54.1621 203.12 56.1896C210.947 57.602 218.356 56.2752 223.396 53.0814C226.424 54.597 229.753 55.4152 233.139 55.4757C236.524 55.5363 239.88 54.8377 242.961 53.4314C246.041 52.025 248.767 49.9465 250.939 47.3486C253.111 44.7506 254.673 41.6992 255.511 38.4184C256.349 35.1376 256.442 31.7107 255.782 28.3895C255.122 25.0682 253.727 21.9369 251.699 19.2255C249.67 16.5141 247.06 14.2915 244.06 12.7208C241.06 11.1502 237.747 10.2715 234.363 10.1492L234.374 10.1385Z" fill="#3B1534"/>
<path d="M132.824 76.4815C135.684 76.4815 138.002 74.163 138.002 71.3029C138.002 68.4428 135.684 66.1243 132.824 66.1243C129.964 66.1243 127.645 68.4428 127.645 71.3029C127.645 74.163 129.964 76.4815 132.824 76.4815Z" stroke="#3B1534" stroke-width="5" stroke-miterlimit="10" stroke-linecap="round"/>
<path d="M126.361 61.3093C126.361 61.3093 135.884 62.6575 137.446 68.981" stroke="#3B1534" stroke-width="5" stroke-miterlimit="10" stroke-linecap="round"/>
<path d="M141.672 180.252C143.699 180.252 145.342 178.609 145.342 176.582C145.342 174.555 143.699 172.912 141.672 172.912C139.646 172.912 138.002 174.555 138.002 176.582C138.002 178.609 139.646 180.252 141.672 180.252Z" fill="#3B1534"/>
<path d="M78.9084 131.649C47.3124 131.649 21.7029 156.916 21.7029 188.084V272.723H102.726V131.649H78.9084Z" fill="#77C8D6"/>
<path d="M260.005 188.084C260.005 156.916 234.395 131.649 202.799 131.649H184.476V272.723H260.005V188.084Z" fill="#77C8D6"/>
<path d="M123.884 122.822L122.114 131.317L172.905 141.894L174.991 131.857L123.884 122.822Z" fill="#F2EADA"/>
<path d="M175.189 130.921L171.615 148.447L152.356 144.007C151.999 140.123 151.628 136.241 151.243 132.36L143.791 141.894L121.113 135.57L123.301 125.635" stroke="#3B1534" stroke-width="5" stroke-miterlimit="10" stroke-linecap="round"/>
<path d="M69.6103 133.393C69.6103 133.393 66.8016 169.52 85.9111 192.776L79.8498 201.993C78.2576 204.414 77.3834 207.237 77.3285 210.134C77.2736 213.031 78.0402 215.884 79.5395 218.364L102.747 256.968" stroke="#F2EADA" stroke-width="5" stroke-miterlimit="10" stroke-linecap="round"/>
<path d="M217.944 134.495C217.944 134.495 220.758 170.622 201.644 193.878L207.71 203.095C209.299 205.513 210.173 208.33 210.231 211.223C210.289 214.115 209.528 216.965 208.037 219.444L184.829 258.054" stroke="#F2EADA" stroke-width="5" stroke-miterlimit="10" stroke-linecap="round"/>
<path d="M188.585 217.855C196.092 217.855 202.178 211.769 202.178 204.262C202.178 196.754 196.092 190.668 188.585 190.668C181.077 190.668 174.991 196.754 174.991 204.262C174.991 211.769 181.077 217.855 188.585 217.855Z" fill="#FFACD2"/>
<path d="M122.113 243.85C114.089 232.867 104.796 216.459 108.338 202.411C112.029 187.779 126.581 188.153 136.435 196.237C145.53 203.684 150.794 215.277 154.662 226.073" stroke="#3B1534" stroke-width="5" stroke-miterlimit="10" stroke-linecap="round"/>
<path d="M115.383 192.342C107.107 174.244 104.261 152.754 108.824 133.259C111.205 123.094 117.384 114.572 126.639 109.72" stroke="#3B1534" stroke-width="5" stroke-miterlimit="10" stroke-linecap="round"/>
<path d="M190.901 190.871C190.901 190.871 193.539 153.615 184.481 127.973" stroke="#3B1534" stroke-width="5" stroke-miterlimit="10" stroke-linecap="round"/>
<path d="M184.476 111.394C189.481 111.394 193.539 107.337 193.539 102.332C193.539 97.3266 189.481 93.2692 184.476 93.2692C179.471 93.2692 175.414 97.3266 175.414 102.332C175.414 107.337 179.471 111.394 184.476 111.394Z" fill="#3B1534"/>
<path d="M176.478 124.742L144.914 119.061C144.773 119.036 144.627 119.064 144.506 119.14C144.384 119.217 144.295 119.335 144.257 119.474C144.218 119.612 144.232 119.759 144.296 119.888C144.36 120.016 144.47 120.116 144.604 120.168L175.001 131.857L176.478 124.742Z" fill="#3B1534"/>
<path d="M404.139 146.478L398.79 100.54C398.186 95.3369 396.565 90.3039 394.016 85.728C391.468 81.1521 388.044 77.1229 383.938 73.8705C379.833 70.6181 375.127 68.2062 370.09 66.7724C365.052 65.3387 359.781 64.9112 354.579 65.5144L305.056 71.2441C300.03 71.826 295.285 73.8668 291.407 77.1144C287.528 80.362 284.685 84.6743 283.228 89.519C278.146 90.1599 273.493 92.696 270.2 96.6199C266.907 100.544 265.216 105.566 265.467 110.683L266.869 139.722C266.992 142.394 267.642 145.016 268.781 147.437C269.919 149.858 271.525 152.03 273.505 153.829C275.485 155.629 277.801 157.019 280.32 157.922C282.838 158.824 285.51 159.22 288.182 159.088L289.156 159.04L289.637 163.17C290.69 172.25 295.307 180.541 302.473 186.217C309.638 191.894 318.765 194.492 327.846 193.439L370.896 188.448C375.834 187.875 380.612 186.335 384.956 183.916C389.299 181.497 393.124 178.246 396.211 174.349C399.298 170.452 401.587 165.984 402.947 161.202C404.308 156.42 404.713 151.417 404.139 146.478Z" fill="#BD4632"/>
<path d="M365.637 195.745L311.411 200.485C308.554 200.735 305.676 200.419 302.941 199.557C300.206 198.694 297.668 197.301 295.471 195.458C293.274 193.614 291.462 191.356 290.138 188.812C288.814 186.268 288.004 183.489 287.754 180.632L282.297 118.242C282.106 116.055 282.347 113.852 283.007 111.758C283.667 109.664 284.733 107.72 286.145 106.039C287.556 104.357 289.285 102.97 291.233 101.956C293.181 100.943 295.309 100.324 297.496 100.133L356.831 94.9491L365.637 195.745Z" fill="#F774AA"/>
<path d="M408.28 398.69H252.237C244.948 398.69 237.958 395.794 232.804 390.641C227.65 385.487 224.755 378.497 224.755 371.208V263.431C224.755 250.112 230.046 237.338 239.464 227.921C248.881 218.503 261.655 213.212 274.974 213.212H396.521C409.84 213.212 422.613 218.503 432.031 227.921C441.449 237.338 446.74 250.112 446.74 263.431V360.23C446.74 370.43 442.688 380.213 435.475 387.425C428.263 394.638 418.48 398.69 408.28 398.69Z" fill="#3B1534"/>
<path d="M369.322 162.068C377.628 162.068 384.361 155.335 384.361 147.029C384.361 138.724 377.628 131.991 369.322 131.991C361.017 131.991 354.284 138.724 354.284 147.029C354.284 155.335 361.017 162.068 369.322 162.068Z" fill="#F774AA"/>
<path d="M364.818 183.908L316.133 188.158L319.557 227.378L368.243 223.128L364.818 183.908Z" fill="#F774AA"/>
<path d="M317.184 184.516C321.364 184.516 324.753 180.834 324.753 176.293C324.753 171.752 321.364 168.07 317.184 168.07C313.003 168.07 309.614 171.752 309.614 176.293C309.614 180.834 313.003 184.516 317.184 184.516Z" fill="#3B1534"/>
<path d="M387.073 133.708L346.415 138.422C342.002 138.931 337.532 138.566 333.26 137.347C328.988 136.129 324.998 134.08 321.517 131.32C318.037 128.559 315.134 125.14 312.975 121.258C310.816 117.375 309.443 113.106 308.934 108.693L306.906 91.2309L381.151 82.623L387.073 133.708Z" fill="#BD4632"/>
<path d="M317.199 200.174L338.711 196.21C338.936 196.166 339.169 196.203 339.369 196.316C339.568 196.429 339.72 196.609 339.798 196.825C339.876 197.04 339.874 197.277 339.792 197.491C339.71 197.705 339.555 197.883 339.353 197.992L318.039 209.804L317.199 200.174Z" fill="#3B1534"/>
<path d="M368.702 155.964C371.453 155.964 373.683 153.734 373.683 150.983C373.683 148.232 371.453 146.002 368.702 146.002C365.951 146.002 363.721 148.232 363.721 150.983C363.721 153.734 365.951 155.964 368.702 155.964Z" stroke="#3B1534" stroke-width="5" stroke-miterlimit="10" stroke-linecap="round"/>
<path d="M374.919 141.369C374.919 141.369 365.76 142.669 364.257 148.752" stroke="#3B1534" stroke-width="5" stroke-miterlimit="10" stroke-linecap="round"/>
<path d="M362.175 150.019L342.294 220.324C341.664 222.553 342.96 224.871 345.189 225.501L376.869 234.46C379.098 235.09 381.416 233.794 382.046 231.565L401.927 161.26C402.558 159.031 401.262 156.713 399.033 156.083L367.352 147.124C365.123 146.494 362.805 147.79 362.175 150.019Z" fill="#F2EADA"/>
<path d="M385.598 165.967L382.56 176.71C382.05 178.513 383.098 180.387 384.901 180.897L385.514 181.07C387.316 181.58 389.191 180.532 389.7 178.73L392.738 167.986C393.248 166.183 392.2 164.309 390.398 163.799L389.785 163.626C387.982 163.116 386.108 164.164 385.598 165.967Z" stroke="#77C8D6" stroke-width="5" stroke-miterlimit="10" stroke-linecap="round"/>
<path d="M464.271 79.6539C465.874 76.2167 466.045 72.2837 464.748 68.7201C463.451 65.1565 460.791 62.2541 457.354 60.6514C453.916 59.0508 449.983 58.8809 446.42 60.179C442.856 61.4771 439.954 64.137 438.351 67.574L430.327 84.7416L456.246 96.8214L464.271 79.6539Z" fill="#F2EADA"/>
<path d="M448.27 113.989L456.295 96.8214L430.375 84.7416L422.35 101.914C421.557 103.616 421.107 105.458 421.026 107.334C420.944 109.209 421.233 111.083 421.876 112.847C422.519 114.611 423.503 116.231 424.772 117.615C426.041 118.999 427.571 120.119 429.273 120.912C430.975 121.705 432.816 122.155 434.692 122.236C436.568 122.318 438.441 122.029 440.206 121.386C441.97 120.743 443.59 119.759 444.974 118.49C446.357 117.22 447.477 115.691 448.27 113.989Z" fill="#FFACD2"/>
<path d="M140.597 370.705C149.91 370.705 157.46 363.155 157.46 353.842C157.46 344.529 149.91 336.98 140.597 336.98C131.284 336.98 123.734 344.529 123.734 353.842C123.734 363.155 131.284 370.705 140.597 370.705Z" fill="#F2EADA"/>
<path d="M147.627 340.489L133.567 367.195" stroke="#77C8D6" stroke-width="5" stroke-miterlimit="10" stroke-linecap="round"/>
<path d="M141.672 227.715C143.699 227.715 145.342 226.072 145.342 224.045C145.342 222.018 143.699 220.375 141.672 220.375C139.646 220.375 138.002 222.018 138.002 224.045C138.002 226.072 139.646 227.715 141.672 227.715Z" fill="#3B1534"/>
<path d="M154.661 241.116C158.816 241.116 162.183 237.749 162.183 233.595C162.183 229.44 158.816 226.073 154.661 226.073C150.507 226.073 147.14 229.44 147.14 233.595C147.14 237.749 150.507 241.116 154.661 241.116Z" fill="#FFACD2"/>
<path d="M127.281 256.834C131.436 256.834 134.803 253.467 134.803 249.312C134.803 245.158 131.436 241.791 127.281 241.791C123.127 241.791 119.76 245.158 119.76 249.312C119.76 253.467 123.127 256.834 127.281 256.834Z" fill="#FFACD2"/>
<path d="M78.0151 264.618C76.577 261.109 73.8041 258.314 70.3059 256.848C66.8077 255.382 62.8706 255.366 59.3603 256.802C57.6227 257.513 56.0423 258.56 54.7093 259.883C53.3763 261.205 52.3169 262.777 51.5916 264.509C50.8663 266.241 50.4893 268.098 50.482 269.976C50.4748 271.854 50.8376 273.714 51.5496 275.452L58.7237 292.983L85.1892 282.144L78.0151 264.618Z" fill="#F2EADA"/>
<path d="M58.7234 292.983L65.9028 310.509C66.6138 312.247 67.6602 313.829 68.9824 315.163C70.3045 316.497 71.8765 317.557 73.6085 318.284C75.3405 319.01 77.1986 319.389 79.0768 319.397C80.955 319.405 82.8165 319.044 84.5549 318.333C86.2934 317.622 87.8748 316.575 89.2088 315.253C90.5429 313.931 91.6034 312.359 92.33 310.627C93.0565 308.895 93.4348 307.037 93.4432 305.159C93.4516 303.281 93.09 301.419 92.379 299.681L85.2049 282.149L58.7234 292.983Z" fill="#77C8D6"/>
<path d="M255.538 191.499L230.144 208.091C223.359 212.524 221.453 221.617 225.886 228.402L252.442 269.045C256.875 275.83 265.968 277.736 272.753 273.303L298.146 256.712C304.931 252.279 306.838 243.185 302.405 236.4L275.849 195.757C271.416 188.972 262.322 187.066 255.538 191.499Z" fill="#77C8D6"/>
<path d="M260.192 190.946L226.247 213.121L222.69 207.664C222.437 207.278 222.263 206.846 222.177 206.392C222.092 205.938 222.097 205.472 222.192 205.021C222.287 204.569 222.47 204.14 222.73 203.759C222.991 203.379 223.325 203.053 223.711 202.801L251.766 184.467C252.152 184.214 252.584 184.04 253.038 183.955C253.492 183.869 253.958 183.874 254.409 183.969C254.861 184.064 255.29 184.247 255.67 184.508C256.051 184.769 256.377 185.102 256.629 185.489L260.192 190.946Z" fill="#F2EADA"/>
<path d="M277.815 198.778L227.852 231.423L249.184 264.072L299.147 231.427L277.815 198.778Z" fill="#F2EADA"/>
<path d="M226.285 202.154L230.736 208.964" stroke="#3B1534" stroke-width="5" stroke-miterlimit="10" stroke-linecap="round"/>
<path d="M232.271 198.238L236.723 205.053" stroke="#3B1534" stroke-width="5" stroke-miterlimit="10" stroke-linecap="round"/>
<path d="M238.258 194.327L242.709 201.143" stroke="#3B1534" stroke-width="5" stroke-miterlimit="10" stroke-linecap="round"/>
<path d="M244.244 190.416L248.695 197.232" stroke="#3B1534" stroke-width="5" stroke-miterlimit="10" stroke-linecap="round"/>
<path d="M250.23 186.506L254.682 193.321" stroke="#3B1534" stroke-width="5" stroke-miterlimit="10" stroke-linecap="round"/>
<path d="M222.915 286.221C221.625 267.898 220.298 232.086 217.918 214.533L217.8 213.667C217.629 212.409 217.682 210.837 218.335 209.729C220.625 205.984 224.402 210.756 225.643 212.789C227.874 216.432 229.595 220.363 230.757 224.473C231.785 228.17 232.052 232.289 234.47 235.435C235.034 236.308 235.895 236.948 236.894 237.238C240.922 238.11 245.245 232.081 247.278 229.395C251.397 223.965 253.917 217.845 256.319 211.527C256.319 211.527 259.245 203.834 263.808 204.529C263.808 204.529 265.997 204.781 266.564 206.455C267.527 203.572 268.217 199.393 270.218 197.066C273.502 193.257 278.387 196.959 278.82 200.854C278.745 200.164 280.313 199.056 280.789 198.826C282.955 197.756 285.069 199.195 286.139 201.089C286.981 202.68 287.525 204.412 287.743 206.198C287.883 207.183 288.46 214.635 287.583 214.838C287.583 214.838 293.2 213.528 292.334 224.286C291.82 228.178 290.995 232.023 289.867 235.783C287.091 245.038 281.474 253.004 277.301 261.633C272.785 270.974 271.614 281.347 267.965 290.998L222.915 286.221Z" fill="#F774AA"/>
<path d="M266.623 206.434C266.623 206.434 267.42 222.927 258.106 236.141" stroke="#3B1534" stroke-width="5" stroke-miterlimit="10" stroke-linecap="round"/>
<path d="M278.349 200.929C278.349 200.929 282.87 224.468 268.42 240.608" stroke="#3B1534" stroke-width="5" stroke-miterlimit="10" stroke-linecap="round"/>
<path d="M287.369 214.287C287.369 214.287 285.957 234.616 276.546 245.899" stroke="#3B1534" stroke-width="5" stroke-miterlimit="10" stroke-linecap="round"/>
<path d="M409.002 250.612C409.002 250.612 403.813 227.935 402.903 209.841C402.625 205.05 403.158 200.246 404.481 195.632C405.723 191.486 410.083 186.42 409.002 181.948C408.867 181.414 408.622 180.914 408.283 180.481C407.944 180.047 407.518 179.688 407.033 179.428C404.615 178.326 401.309 181.033 399.939 182.167C398.57 183.301 396.312 185.446 393.477 190.994C393.477 190.994 391.958 193.963 388.373 203.834C381.052 202.642 374.098 199.8 368.038 195.521C361.979 191.242 356.973 185.64 353.401 179.139C351.561 179.35 349.855 180.207 348.587 181.557C345.708 184.708 346.901 189.015 346.982 189.277C346.982 189.277 340.182 192.738 343.039 200.089C343.039 200.089 338.278 205.134 342.338 211.473L345.65 216.39C345.65 216.39 345.703 219.434 345.708 219.776C345.848 225.661 351.144 235.06 352.615 237.586C352.952 238.163 353.086 238.383 353.332 238.795C356.007 243.278 359.35 250.2 362.475 260.964L409.002 250.612Z" fill="#F774AA"/>
<path d="M346.987 189.298C346.987 189.298 354.097 207.183 367.991 207.696" stroke="#3B1534" stroke-width="5" stroke-miterlimit="10" stroke-linecap="round"/>
<path d="M343.044 200.11C343.044 200.11 349.464 217.984 365.514 218.332" stroke="#3B1534" stroke-width="5" stroke-miterlimit="10" stroke-linecap="round"/>
<path d="M345.655 216.411C347.857 219.517 350.699 222.115 353.99 224.029C357.281 225.943 360.944 227.129 364.733 227.507" stroke="#3B1534" stroke-width="5" stroke-miterlimit="10" stroke-linecap="round"/>
<path d="M226.451 406.704L219.667 405.634C210.099 404.092 201.536 398.812 195.861 390.956C190.185 383.101 187.862 373.313 189.403 363.745L200.905 292.336C201.171 290.685 201.759 289.102 202.636 287.679C203.513 286.255 204.662 285.019 206.018 284.039C207.373 283.06 208.908 282.358 210.535 281.972C212.162 281.586 213.849 281.525 215.5 281.791L269.292 290.452C272.622 290.99 275.603 292.827 277.58 295.56C279.557 298.293 280.368 301.7 279.836 305.031L268.334 376.435C267.572 381.172 265.884 385.713 263.366 389.799C260.849 393.884 257.551 397.433 253.662 400.244C249.773 403.055 245.368 405.072 240.699 406.18C236.03 407.289 231.188 407.467 226.451 406.704Z" fill="#3B1534"/>
<path d="M206.656 301.848L268.8 310.707" stroke="#FFACD2" stroke-width="5" stroke-miterlimit="10" stroke-linecap="round"/>
<path d="M421.564 405.5L415.294 406.821C406.446 408.691 397.217 406.97 389.639 402.036C382.06 397.101 376.751 389.359 374.881 380.511L351.995 272.188C351.705 270.819 351.688 269.406 351.945 268.03C352.201 266.654 352.726 265.343 353.49 264.17C354.253 262.997 355.241 261.986 356.395 261.194C357.549 260.403 358.848 259.847 360.217 259.557L412.357 248.542C415.122 247.959 418.005 248.497 420.374 250.039C422.742 251.581 424.402 254 424.987 256.765L447.874 365.088C449.744 373.936 448.022 383.164 443.088 390.743C438.154 398.321 430.411 403.63 421.564 405.5Z" fill="#3B1534"/>
<path d="M362.17 282.337L416.701 271.792" stroke="#FFACD2" stroke-width="5" stroke-miterlimit="10" stroke-linecap="round"/>
<path d="M254.821 398.69C269.233 383.405 270.383 363.739 273.545 344.068L279.644 306.207C279.644 306.207 281.634 295.54 268.104 290.244" stroke="#F2EADA" stroke-width="5" stroke-miterlimit="10" stroke-linecap="round"/>
<path d="M387.287 398.69C376.459 389.777 372.843 374.76 370.168 361.648C365.963 340.746 361.94 319.796 357.2 299.007C354.718 288.12 346.072 265.073 361.175 259.354" stroke="#F2EADA" stroke-width="5" stroke-miterlimit="10" stroke-linecap="round"/>
<path d="M403.304 139.277C398.768 139.621 394.407 141.178 390.679 143.787" stroke="#3B1534" stroke-width="5" stroke-miterlimit="10" stroke-linecap="round"/>
</svg>
