<svg width="530" height="420" viewBox="0 0 530 420" fill="none" xmlns="http://www.w3.org/2000/svg">
<path d="M464.024 196.373C464.519 193.689 464.769 190.966 464.773 188.236C464.773 164.36 446.049 145.005 423.007 145.005C399.966 145.005 381.241 164.36 381.241 188.236C381.241 209.004 395.397 226.348 414.26 230.5C412.174 236.337 411.109 242.49 411.115 248.689C411.115 277.632 433.782 301.117 461.74 301.117C489.698 301.117 512.365 277.653 512.365 248.689C512.36 220.571 490.923 197.615 464.024 196.373Z" fill="#BD4632"/>
<path d="M463.955 196.764C454.505 196.236 445.102 198.427 436.858 203.077" stroke="#3B1534" stroke-width="5" stroke-miterlimit="10" stroke-linecap="round"/>
<path d="M199.476 137.649H117.726V278.723H199.476V137.649Z" fill="#F2EADA"/>
<path d="M293.558 51.1316H35.5795C25.8706 51.1316 18 59.0022 18 68.7111V261.85C18 271.559 25.8706 279.429 35.5795 279.429H293.558C303.267 279.429 311.137 271.559 311.137 261.85V68.7111C311.137 59.0022 303.267 51.1316 293.558 51.1316Z" stroke="#77C8D6" stroke-width="5" stroke-miterlimit="10" stroke-linecap="round"/>
<path d="M195.983 109.118L145.192 98.5415L138.884 128.821L189.991 137.857L195.983 109.118Z" fill="#BD4632"/>
<path d="M164.199 108.332L138.183 102.923C135.99 102.466 133.908 101.582 132.057 100.321C130.205 99.0596 128.621 97.4458 127.393 95.5719C126.166 93.698 125.319 91.6005 124.902 89.3994C124.485 87.1983 124.506 84.9367 124.964 82.7437L135.974 29.8929C137.521 22.4699 141.953 15.9654 148.296 11.81C154.639 7.65456 162.372 6.18841 169.795 7.73398L184.518 10.8048L164.199 108.332Z" fill="#3B1534"/>
<path d="M205.527 133.273L140.88 121.647L157.764 27.8706L239.958 42.6682L226.23 118.903C225.388 123.553 222.734 127.678 218.852 130.372C214.97 133.066 210.177 134.11 205.527 133.273V133.273Z" fill="#BD4632"/>
<path d="M146.689 91.6618C155.317 91.6618 162.311 84.6679 162.311 76.0404C162.311 67.4129 155.317 60.4189 146.689 60.4189C138.062 60.4189 131.068 67.4129 131.068 76.0404C131.068 84.6679 138.062 91.6618 146.689 91.6618Z" fill="#BD4632"/>
<path d="M249.374 16.1385C245.565 16.0005 241.784 16.8267 238.38 18.5406C237.576 15.2241 235.759 12.2408 233.18 10.0062C230.601 7.77163 227.389 6.39698 223.992 6.07376C220.595 5.75054 217.182 6.49485 214.228 8.203C211.274 9.91115 208.926 12.4981 207.511 15.6035L178.622 9.58498L169.72 7.78744C166.077 7.0503 162.29 7.77231 159.174 9.79819C156.058 11.8241 153.861 14.992 153.056 18.6208L153.029 18.7545L144.469 59.9481L150.712 61.2427C156.819 62.5084 163.179 61.2987 168.395 57.8793C173.611 54.4599 177.257 49.1103 178.531 43.0052L178.772 41.8657L197.256 45.7176C198.508 53.2394 206.934 60.1621 218.12 62.1896C225.947 63.602 233.356 62.2752 238.396 59.0814C241.424 60.597 244.753 61.4152 248.139 61.4757C251.524 61.5363 254.88 60.8377 257.961 59.4314C261.041 58.025 263.767 55.9465 265.939 53.3486C268.111 50.7506 269.673 47.6992 270.511 44.4184C271.349 41.1376 271.442 37.7107 270.782 34.3895C270.122 31.0682 268.727 27.9369 266.699 25.2255C264.67 22.5141 262.06 20.2915 259.06 18.7208C256.06 17.1502 252.747 16.2715 249.363 16.1492L249.374 16.1385Z" fill="#3B1534"/>
<path d="M147.824 82.4815C150.684 82.4815 153.002 80.163 153.002 77.3029C153.002 74.4428 150.684 72.1243 147.824 72.1243C144.964 72.1243 142.645 74.4428 142.645 77.3029C142.645 80.163 144.964 82.4815 147.824 82.4815Z" stroke="#3B1534" stroke-width="5" stroke-miterlimit="10" stroke-linecap="round"/>
<path d="M141.361 67.3093C141.361 67.3093 150.884 68.6575 152.446 74.981" stroke="#3B1534" stroke-width="5" stroke-miterlimit="10" stroke-linecap="round"/>
<path d="M156.672 186.252C158.699 186.252 160.342 184.608 160.342 182.582C160.342 180.555 158.699 178.912 156.672 178.912C154.646 178.912 153.002 180.555 153.002 182.582C153.002 184.608 154.646 186.252 156.672 186.252Z" fill="#3B1534"/>
<path d="M93.9084 137.649C62.3124 137.649 36.7029 162.916 36.7029 194.084V278.723H117.726V137.649H93.9084Z" fill="#77C8D6"/>
<path d="M275.005 194.084C275.005 162.916 249.395 137.649 217.799 137.649H199.476V278.723H275.005V194.084Z" fill="#77C8D6"/>
<path d="M138.884 128.822L137.114 137.317L187.905 147.894L189.991 137.857L138.884 128.822Z" fill="#F2EADA"/>
<path d="M190.189 136.921L186.615 154.447L167.356 150.007C166.999 146.123 166.628 142.241 166.243 138.36L158.791 147.894L136.113 141.57L138.301 131.635" stroke="#3B1534" stroke-width="5" stroke-miterlimit="10" stroke-linecap="round"/>
<path d="M84.6103 139.393C84.6103 139.393 81.8016 175.52 100.911 198.775L94.8498 207.993C93.2576 210.414 92.3834 213.236 92.3285 216.134C92.2736 219.031 93.0402 221.884 94.5395 224.364L117.747 262.968" stroke="#F2EADA" stroke-width="5" stroke-miterlimit="10" stroke-linecap="round"/>
<path d="M232.944 140.495C232.944 140.495 235.758 176.622 216.644 199.878L222.71 209.095C224.299 211.513 225.173 214.33 225.231 217.223C225.289 220.115 224.528 222.965 223.037 225.444L199.829 264.054" stroke="#F2EADA" stroke-width="5" stroke-miterlimit="10" stroke-linecap="round"/>
<path d="M203.585 223.855C211.092 223.855 217.178 217.769 217.178 210.262C217.178 202.754 211.092 196.668 203.585 196.668C196.077 196.668 189.991 202.754 189.991 210.262C189.991 217.769 196.077 223.855 203.585 223.855Z" fill="#FFACD2"/>
<path d="M137.113 249.85C129.089 238.867 119.796 222.459 123.338 208.411C127.029 193.779 141.581 194.153 151.435 202.237C160.53 209.684 165.794 221.277 169.662 232.073" stroke="#3B1534" stroke-width="5" stroke-miterlimit="10" stroke-linecap="round"/>
<path d="M130.383 198.342C122.107 180.244 119.261 158.754 123.824 139.259C126.205 129.094 132.384 120.572 141.639 115.72" stroke="#3B1534" stroke-width="5" stroke-miterlimit="10" stroke-linecap="round"/>
<path d="M205.901 196.871C205.901 196.871 208.539 159.615 199.481 133.973" stroke="#3B1534" stroke-width="5" stroke-miterlimit="10" stroke-linecap="round"/>
<path d="M199.476 117.394C204.481 117.394 208.539 113.337 208.539 108.332C208.539 103.326 204.481 99.269 199.476 99.269C194.471 99.269 190.414 103.326 190.414 108.332C190.414 113.337 194.471 117.394 199.476 117.394Z" fill="#3B1534"/>
<path d="M191.478 130.742L159.914 125.061C159.773 125.036 159.627 125.064 159.506 125.14C159.384 125.217 159.295 125.335 159.257 125.474C159.218 125.612 159.232 125.759 159.296 125.888C159.36 126.016 159.47 126.116 159.604 126.168L190.001 137.857L191.478 130.742Z" fill="#3B1534"/>
<path d="M419.139 152.478L413.79 106.54C413.186 101.337 411.565 96.3039 409.016 91.728C406.468 87.1521 403.044 83.1229 398.938 79.8705C394.833 76.6181 390.127 74.2062 385.09 72.7724C380.052 71.3387 374.781 70.9112 369.579 71.5144L320.056 77.2441C315.03 77.826 310.285 79.8668 306.407 83.1144C302.528 86.362 299.685 90.6743 298.228 95.519C293.146 96.1599 288.493 98.696 285.2 102.62C281.907 106.544 280.216 111.566 280.467 116.683L281.869 145.722C281.992 148.394 282.642 151.016 283.781 153.437C284.919 155.858 286.525 158.03 288.505 159.829C290.485 161.629 292.801 163.019 295.32 163.922C297.838 164.824 300.51 165.22 303.182 165.088L304.156 165.04L304.637 169.17C305.69 178.25 310.307 186.541 317.473 192.217C324.638 197.894 333.765 200.492 342.846 199.439L385.896 194.448C390.834 193.875 395.612 192.335 399.956 189.916C404.299 187.497 408.124 184.246 411.211 180.349C414.298 176.452 416.587 171.984 417.947 167.202C419.308 162.42 419.713 157.417 419.139 152.478V152.478Z" fill="#BD4632"/>
<path d="M380.637 201.745L326.411 206.485C323.554 206.735 320.676 206.419 317.941 205.557C315.206 204.694 312.668 203.301 310.471 201.458C308.274 199.614 306.462 197.356 305.138 194.812C303.814 192.268 303.004 189.489 302.754 186.632L297.297 124.242C297.106 122.055 297.347 119.852 298.007 117.758C298.667 115.664 299.733 113.72 301.145 112.039C302.556 110.357 304.285 108.97 306.233 107.957C308.181 106.943 310.309 106.324 312.496 106.133L371.831 100.949L380.637 201.745Z" fill="#F774AA"/>
<path d="M423.28 404.69H267.237C259.948 404.69 252.958 401.794 247.804 396.64C242.65 391.487 239.755 384.497 239.755 377.208V269.431C239.755 256.112 245.046 243.338 254.464 233.921C263.881 224.503 276.655 219.212 289.974 219.212H411.521C424.84 219.212 437.613 224.503 447.031 233.921C456.449 243.338 461.74 256.112 461.74 269.431V366.23C461.74 376.43 457.688 386.213 450.475 393.425C443.263 400.638 433.48 404.69 423.28 404.69Z" fill="#3B1534"/>
<path d="M384.322 168.068C392.628 168.068 399.361 161.335 399.361 153.03C399.361 144.724 392.628 137.991 384.322 137.991C376.017 137.991 369.284 144.724 369.284 153.03C369.284 161.335 376.017 168.068 384.322 168.068Z" fill="#F774AA"/>
<path d="M379.818 189.908L331.133 194.158L334.557 233.378L383.243 229.128L379.818 189.908Z" fill="#F774AA"/>
<path d="M332.184 190.516C336.364 190.516 339.753 186.834 339.753 182.293C339.753 177.752 336.364 174.07 332.184 174.07C328.003 174.07 324.614 177.752 324.614 182.293C324.614 186.834 328.003 190.516 332.184 190.516Z" fill="#3B1534"/>
<path d="M402.073 139.708L361.415 144.422C357.002 144.931 352.532 144.566 348.26 143.347C343.988 142.129 339.998 140.08 336.517 137.32C333.037 134.559 330.134 131.14 327.975 127.258C325.816 123.375 324.443 119.106 323.934 114.693L321.906 97.2309L396.151 88.623L402.073 139.708Z" fill="#BD4632"/>
<path d="M332.199 206.174L353.711 202.21C353.936 202.166 354.169 202.203 354.369 202.316C354.568 202.429 354.72 202.609 354.798 202.825C354.876 203.04 354.874 203.277 354.792 203.491C354.71 203.705 354.555 203.883 354.353 203.992L333.039 215.804L332.199 206.174Z" fill="#3B1534"/>
<path d="M383.702 161.964C386.453 161.964 388.683 159.734 388.683 156.983C388.683 154.232 386.453 152.002 383.702 152.002C380.951 152.002 378.721 154.232 378.721 156.983C378.721 159.734 380.951 161.964 383.702 161.964Z" stroke="#3B1534" stroke-width="5" stroke-miterlimit="10" stroke-linecap="round"/>
<path d="M389.919 147.369C389.919 147.369 380.76 148.669 379.257 154.752" stroke="#3B1534" stroke-width="5" stroke-miterlimit="10" stroke-linecap="round"/>
<path d="M377.175 156.019L357.294 226.324C356.664 228.553 357.96 230.871 360.189 231.501L391.869 240.46C394.098 241.09 396.416 239.794 397.046 237.565L416.927 167.26C417.558 165.031 416.262 162.713 414.033 162.083L382.352 153.124C380.123 152.494 377.805 153.79 377.175 156.019Z" fill="#F2EADA"/>
<path d="M400.598 171.967L397.56 182.71C397.05 184.513 398.098 186.387 399.901 186.897L400.514 187.07C402.316 187.58 404.191 186.532 404.7 184.729L407.738 173.986C408.248 172.183 407.2 170.309 405.398 169.799L404.785 169.626C402.982 169.116 401.108 170.164 400.598 171.967Z" stroke="#77C8D6" stroke-width="5" stroke-miterlimit="10" stroke-linecap="round"/>
<path d="M479.271 85.654C480.874 82.2168 481.045 78.2838 479.748 74.7202C478.451 71.1566 475.791 68.2542 472.354 66.6515V66.6515C468.916 65.0509 464.983 64.881 461.42 66.1791C457.856 67.4772 454.954 70.1371 453.351 73.5741L445.327 90.7417L471.246 102.822L479.271 85.654Z" fill="#F2EADA"/>
<path d="M463.27 119.989L471.295 102.822L445.375 90.7417L437.35 107.915C436.557 109.616 436.107 111.458 436.026 113.334C435.944 115.21 436.233 117.083 436.876 118.847C437.519 120.611 438.503 122.232 439.772 123.615C441.041 124.999 442.571 126.119 444.273 126.912C445.975 127.705 447.816 128.155 449.692 128.236C451.568 128.318 453.441 128.029 455.206 127.386C456.97 126.743 458.59 125.759 459.974 124.49C461.357 123.221 462.477 121.691 463.27 119.989V119.989Z" fill="#FFACD2"/>
<path d="M155.597 376.705C164.91 376.705 172.46 369.155 172.46 359.842C172.46 350.529 164.91 342.98 155.597 342.98C146.284 342.98 138.734 350.529 138.734 359.842C138.734 369.155 146.284 376.705 155.597 376.705Z" fill="#F2EADA"/>
<path d="M162.627 346.489L148.567 373.195" stroke="#77C8D6" stroke-width="5" stroke-miterlimit="10" stroke-linecap="round"/>
<path d="M156.672 233.715C158.699 233.715 160.342 232.072 160.342 230.045C160.342 228.018 158.699 226.375 156.672 226.375C154.646 226.375 153.002 228.018 153.002 230.045C153.002 232.072 154.646 233.715 156.672 233.715Z" fill="#3B1534"/>
<path d="M169.661 247.116C173.816 247.116 177.183 243.749 177.183 239.595C177.183 235.44 173.816 232.073 169.661 232.073C165.507 232.073 162.14 235.44 162.14 239.595C162.14 243.749 165.507 247.116 169.661 247.116Z" fill="#FFACD2"/>
<path d="M142.281 262.834C146.436 262.834 149.803 259.467 149.803 255.312C149.803 251.158 146.436 247.791 142.281 247.791C138.127 247.791 134.76 251.158 134.76 255.312C134.76 259.467 138.127 262.834 142.281 262.834Z" fill="#FFACD2"/>
<path d="M93.0151 270.618C91.577 267.109 88.8041 264.314 85.3059 262.848C81.8077 261.382 77.8706 261.366 74.3603 262.802V262.802C72.6227 263.513 71.0423 264.56 69.7093 265.883C68.3763 267.205 67.3169 268.777 66.5916 270.509C65.8663 272.241 65.4893 274.098 65.482 275.976C65.4748 277.854 65.8376 279.714 66.5496 281.452L73.7237 298.983L100.189 288.144L93.0151 270.618Z" fill="#F2EADA"/>
<path d="M73.7234 298.983L80.9028 316.509C81.6138 318.247 82.6602 319.829 83.9824 321.163C85.3045 322.497 86.8765 323.557 88.6085 324.284C90.3405 325.01 92.1986 325.389 94.0768 325.397C95.955 325.405 97.8165 325.044 99.5549 324.333C101.293 323.622 102.875 322.575 104.209 321.253C105.543 319.931 106.603 318.359 107.33 316.627C108.057 314.895 108.435 313.037 108.443 311.159C108.452 309.281 108.09 307.419 107.379 305.681L100.205 288.149L73.7234 298.983Z" fill="#77C8D6"/>
<path d="M270.538 197.499L245.144 214.091C238.359 218.524 236.453 227.617 240.886 234.402L267.442 275.045C271.875 281.83 280.968 283.736 287.753 279.303L313.146 262.712C319.931 258.279 321.838 249.185 317.405 242.4L290.849 201.757C286.416 194.972 277.322 193.066 270.538 197.499Z" fill="#77C8D6"/>
<path d="M275.192 196.946L241.247 219.121L237.69 213.664C237.437 213.278 237.263 212.846 237.177 212.392C237.092 211.938 237.097 211.472 237.192 211.021C237.287 210.569 237.47 210.14 237.73 209.759C237.991 209.379 238.325 209.053 238.711 208.801L266.766 190.467C267.152 190.214 267.584 190.04 268.038 189.955C268.492 189.869 268.958 189.874 269.409 189.969C269.861 190.064 270.29 190.247 270.67 190.508C271.051 190.769 271.377 191.102 271.629 191.489L275.192 196.946Z" fill="#F2EADA"/>
<path d="M292.815 204.778L242.852 237.423L264.184 270.072L314.147 237.427L292.815 204.778Z" fill="#F2EADA"/>
<path d="M241.285 208.154L245.736 214.964" stroke="#3B1534" stroke-width="5" stroke-miterlimit="10" stroke-linecap="round"/>
<path d="M247.271 204.238L251.723 211.053" stroke="#3B1534" stroke-width="5" stroke-miterlimit="10" stroke-linecap="round"/>
<path d="M253.258 200.327L257.709 207.143" stroke="#3B1534" stroke-width="5" stroke-miterlimit="10" stroke-linecap="round"/>
<path d="M259.244 196.417L263.695 203.232" stroke="#3B1534" stroke-width="5" stroke-miterlimit="10" stroke-linecap="round"/>
<path d="M265.23 192.506L269.682 199.321" stroke="#3B1534" stroke-width="5" stroke-miterlimit="10" stroke-linecap="round"/>
<path d="M237.915 292.221C236.625 273.898 235.298 238.086 232.918 220.533L232.8 219.667C232.629 218.409 232.682 216.837 233.335 215.729C235.625 211.984 239.402 216.756 240.643 218.789C242.874 222.432 244.595 226.363 245.757 230.473C246.785 234.17 247.052 238.289 249.47 241.435C250.034 242.308 250.895 242.948 251.894 243.238C255.922 244.11 260.245 238.081 262.278 235.395C266.397 229.965 268.917 223.845 271.319 217.527C271.319 217.527 274.245 209.834 278.808 210.529C278.808 210.529 280.997 210.781 281.564 212.455C282.527 209.572 283.217 205.393 285.218 203.066C288.502 199.257 293.387 202.959 293.82 206.854C293.745 206.164 295.313 205.056 295.789 204.826C297.955 203.756 300.069 205.195 301.139 207.089C301.981 208.68 302.525 210.412 302.743 212.198C302.883 213.183 303.46 220.635 302.583 220.838C302.583 220.838 308.2 219.528 307.334 230.286C306.82 234.178 305.995 238.023 304.867 241.783C302.091 251.038 296.474 259.004 292.301 267.633C287.785 276.974 286.614 287.347 282.965 296.998L237.915 292.221Z" fill="#F774AA"/>
<path d="M281.623 212.434C281.623 212.434 282.42 228.927 273.106 242.141" stroke="#3B1534" stroke-width="5" stroke-miterlimit="10" stroke-linecap="round"/>
<path d="M293.349 206.929C293.349 206.929 297.87 230.468 283.42 246.608" stroke="#3B1534" stroke-width="5" stroke-miterlimit="10" stroke-linecap="round"/>
<path d="M302.369 220.287C302.369 220.287 300.957 240.616 291.546 251.899" stroke="#3B1534" stroke-width="5" stroke-miterlimit="10" stroke-linecap="round"/>
<path d="M424.002 256.612C424.002 256.612 418.813 233.935 417.903 215.841C417.625 211.05 418.158 206.246 419.481 201.632C420.723 197.486 425.083 192.42 424.002 187.948C423.867 187.414 423.622 186.914 423.283 186.481C422.944 186.047 422.518 185.688 422.033 185.428C419.615 184.326 416.309 187.033 414.939 188.167C413.57 189.301 411.312 191.446 408.477 196.994C408.477 196.994 406.958 199.963 403.373 209.834C396.052 208.642 389.098 205.8 383.038 201.521C376.979 197.242 371.973 191.64 368.401 185.139C366.561 185.35 364.855 186.207 363.587 187.557C360.708 190.708 361.901 195.015 361.982 195.277C361.982 195.277 355.182 198.738 358.039 206.089C358.039 206.089 353.278 211.134 357.338 217.473L360.65 222.39C360.65 222.39 360.703 225.434 360.708 225.776C360.848 231.661 366.144 241.06 367.615 243.586C367.952 244.163 368.086 244.383 368.332 244.795C371.007 249.278 374.35 256.2 377.475 266.964L424.002 256.612Z" fill="#F774AA"/>
<path d="M361.987 195.298C361.987 195.298 369.097 213.183 382.991 213.696" stroke="#3B1534" stroke-width="5" stroke-miterlimit="10" stroke-linecap="round"/>
<path d="M358.044 206.11C358.044 206.11 364.464 223.984 380.514 224.332" stroke="#3B1534" stroke-width="5" stroke-miterlimit="10" stroke-linecap="round"/>
<path d="M360.655 222.411C362.857 225.517 365.699 228.115 368.99 230.029C372.281 231.943 375.944 233.129 379.733 233.507" stroke="#3B1534" stroke-width="5" stroke-miterlimit="10" stroke-linecap="round"/>
<path d="M241.451 412.704L234.667 411.634C225.099 410.092 216.536 404.812 210.861 396.956C205.185 389.101 202.862 379.313 204.403 369.745L215.905 298.336C216.171 296.685 216.759 295.102 217.636 293.679C218.513 292.255 219.662 291.019 221.018 290.039C222.373 289.06 223.908 288.358 225.535 287.972C227.162 287.586 228.849 287.525 230.5 287.791L284.292 296.452C287.622 296.99 290.603 298.827 292.58 301.56C294.557 304.293 295.368 307.7 294.836 311.031L283.334 382.435C282.572 387.172 280.884 391.713 278.366 395.799C275.849 399.884 272.551 403.433 268.662 406.244C264.773 409.055 260.368 411.072 255.699 412.18C251.03 413.289 246.188 413.467 241.451 412.704Z" fill="#3B1534"/>
<path d="M221.656 307.848L283.8 316.707" stroke="#FFACD2" stroke-width="5" stroke-miterlimit="10" stroke-linecap="round"/>
<path d="M436.564 411.5L430.294 412.821C421.446 414.691 412.217 412.97 404.639 408.036C397.06 403.101 391.751 395.359 389.881 386.511L366.995 278.188C366.705 276.819 366.688 275.406 366.945 274.03C367.201 272.654 367.726 271.343 368.49 270.17C369.253 268.997 370.241 267.986 371.395 267.194C372.549 266.403 373.848 265.847 375.217 265.557L427.357 254.542C430.122 253.959 433.005 254.497 435.374 256.039C437.742 257.581 439.402 260 439.987 262.765L462.874 371.088C464.744 379.936 463.022 389.164 458.088 396.743C453.154 404.321 445.411 409.63 436.564 411.5V411.5Z" fill="#3B1534"/>
<path d="M377.17 288.337L431.701 277.792" stroke="#FFACD2" stroke-width="5" stroke-miterlimit="10" stroke-linecap="round"/>
<path d="M269.821 404.69C284.233 389.405 285.383 369.739 288.545 350.068L294.644 312.207C294.644 312.207 296.634 301.54 283.104 296.244" stroke="#F2EADA" stroke-width="5" stroke-miterlimit="10" stroke-linecap="round"/>
<path d="M402.287 404.69C391.459 395.777 387.843 380.76 385.168 367.648C380.963 346.746 376.94 325.796 372.2 305.007C369.718 294.12 361.072 271.073 376.175 265.354" stroke="#F2EADA" stroke-width="5" stroke-miterlimit="10" stroke-linecap="round"/>
<path d="M418.304 145.277C413.768 145.62 409.407 147.178 405.679 149.787" stroke="#3B1534" stroke-width="5" stroke-miterlimit="10" stroke-linecap="round"/>
</svg>
