<svg width="530" height="420" viewBox="0 0 530 420" fill="none" xmlns="http://www.w3.org/2000/svg">
<path d="M412.331 400.221H128.656V214.831C128.656 200.664 134.468 187.076 144.814 177.056C155.16 167.036 169.194 161.403 183.829 161.396H357.135C364.384 161.396 371.562 162.778 378.259 165.464C384.956 168.149 391.041 172.085 396.166 177.047C401.292 182.009 405.357 187.9 408.131 194.383C410.904 200.866 412.332 207.814 412.331 214.831V400.221Z" fill="#3B1534"/>
<path d="M321.414 43.3186H288.407V94.3813H321.414V43.3186Z" fill="#BD4632"/>
<path d="M267.953 263.98L322.507 161.396H213.404L267.953 263.98Z" fill="#77C8D6"/>
<path d="M259.56 71.0353C276.108 71.0353 289.523 61.2551 289.523 49.1907C289.523 37.1263 276.108 27.3462 259.56 27.3462C243.012 27.3462 229.597 37.1263 229.597 49.1907C229.597 61.2551 243.012 71.0353 259.56 71.0353Z" fill="#BD4632"/>
<path d="M299.403 34.4431H196.57L193.898 99.9663L260.535 90.2043V123.198L236.94 143.165L298.169 129.018L299.403 34.4431Z" fill="#F774AA"/>
<path d="M218.177 15.0548C216.078 12.2055 213.294 9.89276 210.066 8.31589C206.838 6.73903 203.263 5.94525 199.648 6.00293C196.033 6.06061 192.487 6.96801 189.314 8.64699C186.142 10.326 183.439 12.7262 181.437 15.641C179.436 18.5559 178.197 21.8979 177.826 25.3793C177.455 28.8608 177.964 32.3773 179.308 35.6261C180.653 38.875 182.794 41.7587 185.545 44.029C188.297 46.2992 191.578 47.8881 195.104 48.6586C197.148 52.7386 200.341 56.1762 204.316 58.5752C208.29 60.9741 212.884 62.2366 217.568 62.2169C231.273 62.2169 242.381 51.6519 242.381 38.6202C242.381 25.8024 231.601 15.3625 218.177 15.0548Z" fill="#BD4632"/>
<path d="M298.46 111.507H237.452V148.156H298.46V111.507Z" fill="#F774AA"/>
<path d="M260.535 90.2043L297.867 77.0789" stroke="#3B1534" stroke-width="5" stroke-miterlimit="10" stroke-linecap="round"/>
<path d="M260.535 123.193L299.564 106.182" stroke="#3B1534" stroke-width="5" stroke-miterlimit="10" stroke-linecap="round"/>
<path d="M237.473 142.733L262.857 137.518C263.067 137.475 263.285 137.505 263.474 137.603C263.663 137.7 263.811 137.859 263.89 138.052C263.97 138.244 263.977 138.458 263.911 138.655C263.844 138.852 263.707 139.02 263.525 139.129L237.473 154.706V142.733Z" fill="#3B1534"/>
<path d="M298.46 148.151H237.452V161.391H298.46V148.151Z" fill="#77C8D6"/>
<path d="M267.953 178.991L298.46 161.396H237.452L267.953 178.991Z" fill="#77C8D6"/>
<path d="M131.92 196.616L70.1954 336.262C70.1954 336.262 44.9788 382.522 87.003 404.862L141.881 327.866L131.92 196.616Z" fill="#77C8D6"/>
<path d="M198.257 188.297L188.536 257.085C188.142 259.87 190.155 262.437 193.032 262.818L231.642 267.931C234.519 268.312 237.171 266.363 237.564 263.578L247.286 194.79C247.679 192.005 245.666 189.438 242.789 189.057L204.179 183.944C201.302 183.563 198.651 185.512 198.257 188.297Z" fill="#F2EADA"/>
<path d="M210.019 196.872C207.663 196.55 205.483 198.138 205.149 200.419C204.816 202.699 206.456 204.81 208.813 205.133L213.778 205.812C216.134 206.135 218.314 204.547 218.648 202.266C218.981 199.985 217.341 197.875 214.985 197.552L210.019 196.872Z" fill="#BD4632"/>
<path d="M229.753 198.283C227.395 197.971 225.221 199.568 224.899 201.851C224.576 204.134 226.226 206.238 228.585 206.55L233.554 207.208C235.912 207.52 238.085 205.923 238.408 203.64C238.73 201.357 237.08 199.254 234.722 198.941L229.753 198.283Z" fill="#BD4632"/>
<path d="M207.164 210.096C204.806 209.784 202.633 211.382 202.31 213.664C201.988 215.947 203.638 218.051 205.996 218.363L210.965 219.021C213.323 219.333 215.497 217.736 215.819 215.453C216.142 213.171 214.492 211.067 212.133 210.755L207.164 210.096Z" fill="#BD4632"/>
<path d="M227.693 212.812C225.335 212.5 223.161 214.097 222.839 216.38C222.516 218.663 224.166 220.767 226.524 221.079L231.494 221.737C233.852 222.049 236.025 220.452 236.348 218.169C236.67 215.886 235.02 213.783 232.662 213.47L227.693 212.812Z" fill="#BD4632"/>
<path d="M205.11 224.626C202.752 224.313 200.579 225.911 200.256 228.193C199.934 230.476 201.584 232.58 203.942 232.892L208.911 233.55C211.269 233.862 213.442 232.265 213.765 229.982C214.088 227.7 212.437 225.596 210.079 225.284L205.11 224.626Z" fill="#BD4632"/>
<path d="M225.644 227.342C223.286 227.03 221.113 228.627 220.79 230.91C220.468 233.192 222.118 235.296 224.476 235.608L229.445 236.266C231.803 236.579 233.976 234.981 234.299 232.699C234.622 230.416 232.971 228.312 230.613 228L225.644 227.342Z" fill="#BD4632"/>
<path d="M227.033 203.176H188.064C185.16 203.176 182.806 205.455 182.806 208.266V277.695C182.806 280.506 185.16 282.784 188.064 282.784H227.033C229.937 282.784 232.291 280.506 232.291 277.695V208.266C232.291 205.455 229.937 203.176 227.033 203.176Z" fill="#F2EADA"/>
<path d="M199.699 214.023H194.684C192.304 214.023 190.375 215.891 190.375 218.195C190.375 220.499 192.304 222.367 194.684 222.367H199.699C202.08 222.367 204.009 220.499 204.009 218.195C204.009 215.891 202.08 214.023 199.699 214.023Z" fill="#FFACD2"/>
<path d="M220.418 214.023H215.402C213.022 214.023 211.093 215.891 211.093 218.195C211.093 220.499 213.022 222.367 215.402 222.367H220.418C222.798 222.367 224.727 220.499 224.727 218.195C224.727 215.891 222.798 214.023 220.418 214.023Z" fill="#FFACD2"/>
<path d="M199.699 228.687H194.684C192.304 228.687 190.375 230.555 190.375 232.859C190.375 235.163 192.304 237.031 194.684 237.031H199.699C202.08 237.031 204.009 235.163 204.009 232.859C204.009 230.555 202.08 228.687 199.699 228.687Z" fill="#FFACD2"/>
<path d="M220.418 228.687H215.402C213.022 228.687 211.093 230.555 211.093 232.859C211.093 235.163 213.022 237.031 215.402 237.031H220.418C222.798 237.031 224.727 235.163 224.727 232.859C224.727 230.555 222.798 228.687 220.418 228.687Z" fill="#FFACD2"/>
<path d="M199.699 243.356H194.684C192.304 243.356 190.375 245.224 190.375 247.528C190.375 249.832 192.304 251.7 194.684 251.7H199.699C202.08 251.7 204.009 249.832 204.009 247.528C204.009 245.224 202.08 243.356 199.699 243.356Z" fill="#FFACD2"/>
<path d="M220.418 243.356H215.402C213.022 243.356 211.093 245.224 211.093 247.528C211.093 249.832 213.022 251.7 215.402 251.7H220.418C222.798 251.7 224.727 249.832 224.727 247.528C224.727 245.224 222.798 243.356 220.418 243.356Z" fill="#FFACD2"/>
<path d="M408.43 196.616L470.155 336.262C470.155 336.262 495.372 382.522 453.347 404.862L398.47 327.866L408.43 196.616Z" fill="#77C8D6"/>
<path d="M311.98 229.134L283.245 267.323C278.384 273.783 279.854 282.833 286.527 287.538L311.102 304.866C317.775 309.571 327.125 308.149 331.985 301.69L360.721 263.501C365.581 257.041 364.112 247.991 357.439 243.286L332.864 225.958C326.191 221.253 316.841 222.675 311.98 229.134Z" fill="#77C8D6"/>
<path d="M360.017 248.081L327.092 224.614L330.981 219.493C331.538 218.762 332.372 218.274 333.301 218.137C334.229 218 335.175 218.226 335.932 218.763L363.153 238.157C363.527 238.423 363.844 238.758 364.085 239.143C364.325 239.528 364.485 239.954 364.555 240.399C364.625 240.844 364.604 241.297 364.493 241.734C364.382 242.171 364.182 242.582 363.907 242.944L360.017 248.081Z" fill="#F2EADA"/>
<path d="M309.442 234.175L286.142 264.835L334.612 299.352L357.912 268.692L309.442 234.175Z" fill="#F2EADA"/>
<path d="M337.979 220.239L332.242 227.785" stroke="#3B1534" stroke-width="5" stroke-miterlimit="10" stroke-linecap="round"/>
<path d="M343.786 224.374L338.049 231.92" stroke="#3B1534" stroke-width="5" stroke-miterlimit="10" stroke-linecap="round"/>
<path d="M349.593 228.51L343.856 236.055" stroke="#3B1534" stroke-width="5" stroke-miterlimit="10" stroke-linecap="round"/>
<path d="M355.401 232.645L349.664 240.196" stroke="#3B1534" stroke-width="5" stroke-miterlimit="10" stroke-linecap="round"/>
<path d="M361.208 236.786L355.471 244.331" stroke="#3B1534" stroke-width="5" stroke-miterlimit="10" stroke-linecap="round"/>
<path d="M267.953 173.411C267.914 165.262 267.872 157.11 267.829 148.954" stroke="#3B1534" stroke-width="5" stroke-miterlimit="10" stroke-linecap="round"/>
<path d="M406.615 291.853L344.228 330.911" stroke="#3B1534" stroke-width="5" stroke-miterlimit="10" stroke-linecap="round"/>
<path d="M389.84 277.779L336.853 311.914C335.785 312.606 335.044 313.68 334.793 314.9C334.543 316.121 334.803 317.388 335.517 318.422L344.276 330.979L406.857 291.556L396.288 278.748C395.531 277.839 394.45 277.236 393.258 277.056C392.065 276.877 390.846 277.134 389.84 277.779V277.779Z" fill="#F2EADA"/>
<path d="M387.076 279.562C377.816 263.98 373.609 247.601 367.381 230.543L367.074 229.699C367.074 229.699 364.822 223.441 360.766 227.091C360.766 227.091 357.297 229.589 360.577 248.628C360.691 249.254 360.82 249.88 360.971 250.5C361.472 252.586 362.619 258.088 361.132 258.88C361.132 258.88 357.361 263.61 341.12 249.948L322.588 234.945C322.588 234.945 316.124 229.318 312.164 232.087C312.164 232.087 310.23 233.339 310.505 235.122C308.21 232.947 305.554 229.474 302.554 228.296C297.63 226.361 294.834 232.004 296.299 235.748C296.041 235.08 294.032 234.809 293.471 234.82C290.934 234.877 289.641 237.151 289.544 239.372C289.527 241.21 289.855 243.035 290.514 244.759C290.853 245.718 293.897 252.758 294.823 252.534C294.823 252.534 288.898 253.963 294.915 263.339C301.358 272.354 309.765 279.891 319.544 285.418L323.229 287.384C331.962 292.036 339.719 298.533 347.368 305.146L387.076 279.562Z" fill="#F774AA"/>
<path d="M310.494 235.122C310.494 235.122 317.691 250.485 332.802 258.15" stroke="#3B1534" stroke-width="5" stroke-miterlimit="10" stroke-linecap="round"/>
<path d="M296.289 235.748C296.289 235.748 303.378 259.245 324.727 267.182" stroke="#3B1534" stroke-width="5" stroke-miterlimit="10" stroke-linecap="round"/>
<path d="M294.113 252.143C294.113 252.143 305.221 269.935 319.502 275.823" stroke="#3B1534" stroke-width="5" stroke-miterlimit="10" stroke-linecap="round"/>
<path d="M382.783 76.9799C383.908 73.7823 383.675 70.283 382.136 67.2515C380.596 64.22 377.876 61.9045 374.573 60.8142V60.8142C371.269 59.7252 367.654 59.9512 364.522 61.4426C361.39 62.934 358.999 65.5685 357.873 68.7667L352.244 84.7499L377.159 92.9683L382.783 76.9799Z" fill="#F2EADA"/>
<path d="M352.244 84.7498L346.62 100.728C346.062 102.311 345.832 103.986 345.943 105.655C346.054 107.325 346.504 108.957 347.267 110.458C348.807 113.49 351.528 115.806 354.832 116.896C358.136 117.986 361.752 117.761 364.884 116.27C368.017 114.779 370.409 112.144 371.535 108.946L377.159 92.9682L352.244 84.7498Z" fill="#77C8D6"/>
<path d="M93.6937 31.6531C90.5296 30.226 86.9096 30.0737 83.6296 31.2295C80.3495 32.3854 77.6779 34.7548 76.202 37.8169C74.7296 40.8806 74.5738 44.3848 75.7687 47.5597C76.9636 50.7346 79.4116 53.3204 82.5749 54.7492L98.3804 61.8569L109.494 38.7608L93.6937 31.6531Z" fill="#F2EADA"/>
<path d="M125.299 45.9105L109.494 38.782L98.3801 61.8572L114.18 68.9857C117.345 70.4125 120.966 70.5641 124.246 69.4072C127.526 68.2504 130.197 65.8798 131.672 62.8167C133.139 59.7562 133.292 56.2574 132.097 53.088C130.902 49.9185 128.457 47.3373 125.299 45.9105Z" fill="#FFACD2"/>
<path d="M389.586 294.476C391.514 294.476 393.077 292.963 393.077 291.097C393.077 289.231 391.514 287.718 389.586 287.718C387.659 287.718 386.096 289.231 386.096 291.097C386.096 292.963 387.659 294.476 389.586 294.476Z" fill="#77C8D6"/>
<path d="M155.219 157.037C154.39 155.527 153.255 154.194 151.883 153.118C150.511 152.042 148.929 151.244 147.232 150.772C145.534 150.3 143.756 150.164 142.003 150.371C140.25 150.578 138.558 151.125 137.028 151.979C135.497 152.832 134.16 153.975 133.096 155.339C132.032 156.703 131.262 158.261 130.833 159.919C130.403 161.578 130.323 163.303 130.597 164.992C130.871 166.681 131.493 168.299 132.426 169.75L141.126 184.351L163.935 171.638L155.219 157.037Z" fill="#F2EADA"/>
<path d="M163.919 171.659L141.11 184.372L149.81 199.005C150.671 200.456 151.818 201.729 153.188 202.751C154.557 203.773 156.121 204.523 157.79 204.959C159.459 205.395 161.201 205.508 162.915 205.292C164.63 205.075 166.283 204.534 167.781 203.698V203.698C169.281 202.865 170.596 201.754 171.651 200.428C172.707 199.103 173.482 197.589 173.932 195.973C174.383 194.357 174.499 192.671 174.276 191.012C174.052 189.352 173.493 187.752 172.63 186.302L163.919 171.659Z" fill="#FFACD2"/>
<path d="M72.3448 160.098C83.0286 160.098 91.6896 151.714 91.6896 141.371C91.6896 131.029 83.0286 122.645 72.3448 122.645C61.661 122.645 53 131.029 53 141.371C53 151.714 61.661 160.098 72.3448 160.098Z" fill="#F2EADA"/>
<path d="M79.2672 126.019L63.1384 155.675" stroke="#77C8D6" stroke-width="5" stroke-miterlimit="10" stroke-linecap="round"/>
<path d="M366.756 208.803C377.44 208.803 386.101 200.419 386.101 190.077C386.101 179.735 377.44 171.351 366.756 171.351C356.073 171.351 347.412 179.735 347.412 190.077C347.412 200.419 356.073 208.803 366.756 208.803Z" fill="#F2EADA"/>
<path d="M350.558 182.218L383.02 197.967" stroke="#77C8D6" stroke-width="5" stroke-miterlimit="10" stroke-linecap="round"/>
<path d="M266.805 212.573C268.448 212.573 269.779 211.284 269.779 209.695C269.779 208.105 268.448 206.816 266.805 206.816C265.163 206.816 263.832 208.105 263.832 209.695C263.832 211.284 265.163 212.573 266.805 212.573Z" fill="#F2EADA"/>
<path d="M266.805 234.444C268.448 234.444 269.779 233.155 269.779 231.566C269.779 229.976 268.448 228.687 266.805 228.687C265.163 228.687 263.832 229.976 263.832 231.566C263.832 233.155 265.163 234.444 266.805 234.444Z" fill="#F2EADA"/>
<path d="M321.419 46.2599C321.419 37.1 317.66 28.3154 310.969 21.8384C304.278 15.3614 295.203 11.7227 285.741 11.7227H212.639V46.2599H282.396V58.7752C282.396 63.6988 284.416 68.4208 288.013 71.9023C291.609 75.3838 296.487 77.3397 301.573 77.3397H312.698V46.2599H321.419Z" fill="#BD4632"/>
<path d="M304.806 109.097C314.862 109.097 323.014 101.206 323.014 91.4715C323.014 81.7371 314.862 73.8457 304.806 73.8457C294.75 73.8457 286.598 81.7371 286.598 91.4715C286.598 101.206 294.75 109.097 304.806 109.097Z" fill="#F774AA"/>
<path d="M305.199 97.5154C307.731 97.5154 309.783 95.5285 309.783 93.0776C309.783 90.6267 307.731 88.6399 305.199 88.6399C302.667 88.6399 300.615 90.6267 300.615 93.0776C300.615 95.5285 302.667 97.5154 305.199 97.5154Z" stroke="#3B1534" stroke-width="5" stroke-miterlimit="10" stroke-linecap="round"/>
<path d="M310.926 84.51C310.926 84.51 302.489 85.6677 301.105 91.0858" stroke="#3B1534" stroke-width="5" stroke-miterlimit="10" stroke-linecap="round"/>
<path d="M237.452 161.109L267.953 173.411L298.46 161.109" stroke="#3B1534" stroke-width="5" stroke-miterlimit="10" stroke-linecap="round"/>
<path d="M97.6799 334.958C81.395 354.696 68.4284 385.338 86.9975 404.836C87.186 404.976 87.4554 405.18 87.784 405.414C92.4686 408.736 97.8343 411.048 103.519 412.194C108.587 413.273 113.807 413.516 118.959 412.913C131.22 411.5 141.46 406.489 149.476 397.352C154.217 391.95 157.826 385.797 161.899 379.951L181.777 351.452L196.257 330.692L133.579 291.462L97.6799 334.958Z" fill="#77C8D6"/>
<path d="M442.671 334.958L406.863 291.566L344.282 330.99L358.552 351.452L378.43 379.956C382.503 385.802 386.118 391.95 390.853 397.358C398.869 406.494 409.109 411.505 421.376 412.918C426.531 413.523 431.754 413.28 436.826 412.199C442.512 411.055 447.878 408.743 452.561 405.42C452.89 405.185 453.159 404.981 453.348 404.841C471.922 385.338 458.961 354.696 442.671 334.958Z" fill="#77C8D6"/>
<path d="M406.863 291.566L457.145 352.396" stroke="#3B1534" stroke-width="5" stroke-miterlimit="10" stroke-linecap="round"/>
<path d="M153.543 280.203C161.161 262.948 166.742 247.601 172.969 230.522L173.276 229.678C173.276 229.678 175.528 223.42 179.584 227.07C179.584 227.07 183.054 229.568 179.773 248.607C179.665 249.233 179.53 249.859 179.38 250.479C178.879 252.565 177.731 258.067 179.218 258.859C179.218 258.859 182.989 263.589 199.231 249.927L217.773 234.929C217.773 234.929 224.237 229.302 228.197 232.071C228.197 232.071 230.136 233.323 229.856 235.106C232.151 232.932 234.812 229.459 237.813 228.28C242.731 226.345 245.527 231.988 244.062 235.732C244.326 235.065 246.33 234.793 246.89 234.804C249.427 234.861 250.72 237.135 250.817 239.356C250.835 241.194 250.506 243.019 249.847 244.743C249.508 245.703 246.464 252.742 245.538 252.518C245.538 252.518 251.463 253.947 245.446 263.323C239.003 272.338 230.596 279.875 220.817 285.402L217.132 287.368C208.4 292.02 202.188 297.991 193.58 305.531L153.543 280.203Z" fill="#F774AA"/>
<path d="M229.856 235.122C229.856 235.122 222.664 250.485 207.548 258.15" stroke="#3B1534" stroke-width="5" stroke-miterlimit="10" stroke-linecap="round"/>
<path d="M244.062 235.748C244.062 235.748 236.978 259.245 215.629 267.182" stroke="#3B1534" stroke-width="5" stroke-miterlimit="10" stroke-linecap="round"/>
<path d="M246.238 252.143C246.238 252.143 235.13 269.925 220.849 275.823" stroke="#3B1534" stroke-width="5" stroke-miterlimit="10" stroke-linecap="round"/>
<path d="M259.77 88.6608L193.898 99.9663L192.772 127.604C192.651 130.54 193.207 133.465 194.399 136.166C195.592 138.867 197.392 141.278 199.668 143.221C201.943 145.165 204.638 146.594 207.555 147.403C210.473 148.212 213.54 148.382 216.534 147.9L236.94 143.207L262.943 123.912C263.25 123.687 263.496 123.392 263.66 123.054C263.824 122.717 263.902 122.345 263.886 121.973L262.598 90.8457C262.581 90.5149 262.492 90.1913 262.336 89.8965C262.18 89.6017 261.961 89.3424 261.693 89.1357C261.426 88.9291 261.116 88.7799 260.784 88.698C260.453 88.6161 260.107 88.6034 259.77 88.6608V88.6608Z" fill="#F2EADA"/>
<path d="M194.56 112.935L239.741 104.926" stroke="#77C8D6" stroke-width="5" stroke-miterlimit="10" stroke-linecap="round"/>
<path d="M193.898 127.594L222.33 121.91" stroke="#77C8D6" stroke-width="5" stroke-miterlimit="10" stroke-linecap="round"/>
<path d="M143.459 279.489L133.579 291.483L196.279 330.713C198.929 326.907 201.581 323.103 204.235 319.304C204.67 318.68 204.972 317.98 205.126 317.243C205.28 316.507 205.282 315.748 205.132 315.01C204.982 314.272 204.682 313.571 204.251 312.946C203.82 312.32 203.265 311.784 202.619 311.367C191.069 303.925 162.421 285.476 151.324 278.321C150.1 277.528 148.613 277.208 147.157 277.424C145.701 277.641 144.381 278.377 143.459 279.489V279.489Z" fill="#F2EADA"/>
<path d="M150.764 294.476C152.692 294.476 154.255 292.963 154.255 291.097C154.255 289.231 152.692 287.718 150.764 287.718C148.836 287.718 147.273 289.231 147.273 291.097C147.273 292.963 148.836 294.476 150.764 294.476Z" fill="#77C8D6"/>
<path d="M133.579 291.462L89.1846 346.863" stroke="#3B1534" stroke-width="5" stroke-miterlimit="10" stroke-linecap="round"/>
</svg>
