<svg width="451" height="433" viewBox="0 0 451 433" fill="none" xmlns="http://www.w3.org/2000/svg">
<path d="M381.39 418.421H80.2998V221.651C80.2998 206.614 86.4687 192.192 97.4502 181.557C108.432 170.921 123.327 164.943 138.861 164.935H322.806C330.5 164.935 338.118 166.402 345.226 169.253C352.334 172.103 358.793 176.281 364.233 181.547C369.673 186.814 373.988 193.066 376.932 199.947C379.876 206.828 381.39 214.203 381.39 221.651V418.421Z" fill="#3B1534"/>
<path d="M284.891 39.6096H249.859V93.807H284.891V39.6096Z" fill="#BD4632"/>
<path d="M228.149 273.817L286.052 164.935H170.251L228.149 273.817Z" fill="#77C8D6"/>
<path d="M219.24 69.0275C236.804 69.0275 251.042 58.647 251.042 45.842C251.042 33.037 236.804 22.6564 219.24 22.6564C201.677 22.6564 187.438 33.037 187.438 45.842C187.438 58.647 201.677 69.0275 219.24 69.0275Z" fill="#BD4632"/>
<path d="M261.529 30.1893H152.383L149.547 99.7348L220.275 89.3735V124.393L195.232 145.586L260.219 130.57L261.529 30.1893Z" fill="#F774AA"/>
<path d="M175.317 9.61071C173.089 6.5864 170.134 4.13173 166.708 2.45806C163.283 0.784393 159.488 -0.0581069 155.651 0.00311322C151.814 0.0643333 148.05 1.02744 144.682 2.80949C141.315 4.59154 138.446 7.13914 136.322 10.2329C134.198 13.3266 132.882 16.8738 132.489 20.569C132.095 24.2642 132.635 27.9966 134.063 31.4448C135.49 34.8931 137.762 37.9538 140.682 40.3635C143.603 42.7732 147.085 44.4595 150.828 45.2774C152.997 49.6078 156.386 53.2565 160.605 55.8027C164.823 58.3489 169.7 59.6889 174.671 59.668C189.217 59.668 201.007 48.4544 201.007 34.6227C201.007 21.0181 189.566 9.93726 175.317 9.61071Z" fill="#BD4632"/>
<path d="M260.528 111.983H195.775V150.882H260.528V111.983Z" fill="#F774AA"/>
<path d="M220.275 89.3735L259.899 75.4423" stroke="#3B1534" stroke-width="5" stroke-miterlimit="10" stroke-linecap="round"/>
<path d="M220.275 124.387L261.7 106.332" stroke="#3B1534" stroke-width="5" stroke-miterlimit="10" stroke-linecap="round"/>
<path d="M195.798 145.126L222.74 139.591C222.962 139.546 223.194 139.578 223.395 139.681C223.596 139.785 223.752 139.954 223.837 140.158C223.921 140.363 223.929 140.589 223.858 140.798C223.787 141.008 223.642 141.186 223.449 141.302L195.798 157.834V145.126Z" fill="#3B1534"/>
<path d="M260.528 150.877H195.775V164.93H260.528V150.877Z" fill="#77C8D6"/>
<path d="M228.149 183.61L260.528 164.935H195.775L228.149 183.61Z" fill="#77C8D6"/>
<path d="M83.7647 202.318L18.251 350.536C18.251 350.536 -8.51366 399.636 36.0903 423.347L94.3368 341.625L83.7647 202.318Z" fill="#77C8D6"/>
<path d="M154.174 193.488L143.856 266.499C143.438 269.455 145.575 272.179 148.629 272.583L189.609 278.01C192.663 278.415 195.477 276.346 195.894 273.39L206.213 200.379C206.63 197.423 204.494 194.699 201.44 194.295L160.46 188.868C157.406 188.463 154.592 190.532 154.174 193.488Z" fill="#F2EADA"/>
<path d="M166.658 202.59C164.157 202.248 161.843 203.933 161.49 206.354C161.136 208.775 162.877 211.015 165.378 211.357L170.648 212.079C173.149 212.421 175.463 210.736 175.816 208.315C176.17 205.894 174.429 203.654 171.928 203.311L166.658 202.59Z" fill="#BD4632"/>
<path d="M187.604 204.087C185.101 203.756 182.794 205.451 182.452 207.874C182.109 210.297 183.861 212.53 186.364 212.862L191.638 213.56C194.141 213.891 196.447 212.196 196.79 209.773C197.132 207.35 195.381 205.117 192.878 204.786L187.604 204.087Z" fill="#BD4632"/>
<path d="M163.628 216.626C161.125 216.294 158.819 217.99 158.476 220.413C158.134 222.835 159.885 225.068 162.388 225.4L167.662 226.098C170.165 226.43 172.472 224.734 172.814 222.311C173.157 219.888 171.405 217.656 168.902 217.324L163.628 216.626Z" fill="#BD4632"/>
<path d="M185.417 219.508C182.914 219.177 180.607 220.872 180.265 223.295C179.923 225.718 181.674 227.951 184.177 228.282L189.451 228.981C191.954 229.312 194.261 227.617 194.603 225.194C194.945 222.771 193.194 220.538 190.691 220.207L185.417 219.508Z" fill="#BD4632"/>
<path d="M161.448 232.047C158.945 231.715 156.638 233.41 156.296 235.833C155.953 238.256 157.705 240.489 160.208 240.821L165.482 241.519C167.985 241.85 170.291 240.155 170.634 237.732C170.976 235.309 169.225 233.076 166.722 232.745L161.448 232.047Z" fill="#BD4632"/>
<path d="M183.242 234.93C180.739 234.598 178.433 236.294 178.09 238.716C177.748 241.139 179.499 243.372 182.002 243.704L187.276 244.402C189.779 244.734 192.086 243.038 192.428 240.615C192.771 238.192 191.019 235.96 188.516 235.628L183.242 234.93Z" fill="#BD4632"/>
<path d="M184.717 209.281H143.355C140.273 209.281 137.774 211.699 137.774 214.683V288.374C137.774 291.358 140.273 293.776 143.355 293.776H184.717C187.799 293.776 190.297 291.358 190.297 288.374V214.683C190.297 211.699 187.799 209.281 184.717 209.281Z" fill="#F2EADA"/>
<path d="M155.705 220.793H150.382C147.856 220.793 145.808 222.776 145.808 225.221C145.808 227.667 147.856 229.649 150.382 229.649H155.705C158.231 229.649 160.279 227.667 160.279 225.221C160.279 222.776 158.231 220.793 155.705 220.793Z" fill="#FFACD2"/>
<path d="M177.695 220.793H172.372C169.846 220.793 167.798 222.776 167.798 225.221C167.798 227.667 169.846 229.649 172.372 229.649H177.695C180.221 229.649 182.269 227.667 182.269 225.221C182.269 222.776 180.221 220.793 177.695 220.793Z" fill="#FFACD2"/>
<path d="M155.705 236.357H150.382C147.856 236.357 145.808 238.34 145.808 240.785C145.808 243.231 147.856 245.213 150.382 245.213H155.705C158.231 245.213 160.279 243.231 160.279 240.785C160.279 238.34 158.231 236.357 155.705 236.357Z" fill="#FFACD2"/>
<path d="M177.695 236.357H172.372C169.846 236.357 167.798 238.34 167.798 240.785C167.798 243.231 169.846 245.213 172.372 245.213H177.695C180.221 245.213 182.269 243.231 182.269 240.785C182.269 238.34 180.221 236.357 177.695 236.357Z" fill="#FFACD2"/>
<path d="M155.705 251.927H150.382C147.856 251.927 145.808 253.909 145.808 256.355C145.808 258.8 147.856 260.783 150.382 260.783H155.705C158.231 260.783 160.279 258.8 160.279 256.355C160.279 253.909 158.231 251.927 155.705 251.927Z" fill="#FFACD2"/>
<path d="M177.695 251.927H172.372C169.846 251.927 167.798 253.909 167.798 256.355C167.798 258.8 169.846 260.783 172.372 260.783H177.695C180.221 260.783 182.269 258.8 182.269 256.355C182.269 253.909 180.221 251.927 177.695 251.927Z" fill="#FFACD2"/>
<path d="M377.25 202.318L442.764 350.536C442.764 350.536 469.528 399.636 424.924 423.347L366.678 341.625L377.25 202.318Z" fill="#77C8D6"/>
<path d="M274.879 236.832L244.379 277.365C239.22 284.221 240.78 293.828 247.862 298.822L273.946 317.213C281.029 322.207 290.953 320.698 296.111 313.842L326.611 273.309C331.77 266.453 330.21 256.846 323.128 251.852L297.044 233.461C289.961 228.467 280.038 229.976 274.879 236.832Z" fill="#77C8D6"/>
<path d="M325.865 256.941L290.918 232.035L295.046 226.599C295.637 225.823 296.523 225.305 297.508 225.16C298.493 225.015 299.497 225.254 300.301 225.825L329.192 246.409C329.59 246.691 329.926 247.047 330.182 247.455C330.437 247.863 330.607 248.317 330.681 248.788C330.756 249.26 330.733 249.742 330.615 250.205C330.497 250.669 330.285 251.105 329.993 251.49L325.865 256.941Z" fill="#F2EADA"/>
<path d="M272.184 242.183L247.454 274.725L298.9 311.36L323.63 278.818L272.184 242.183Z" fill="#F2EADA"/>
<path d="M302.473 227.391L296.384 235.4" stroke="#3B1534" stroke-width="5" stroke-miterlimit="10" stroke-linecap="round"/>
<path d="M308.637 231.78L302.548 239.789" stroke="#3B1534" stroke-width="5" stroke-miterlimit="10" stroke-linecap="round"/>
<path d="M314.801 236.169L308.711 244.178" stroke="#3B1534" stroke-width="5" stroke-miterlimit="10" stroke-linecap="round"/>
<path d="M320.964 240.558L314.875 248.573" stroke="#3B1534" stroke-width="5" stroke-miterlimit="10" stroke-linecap="round"/>
<path d="M327.128 244.953L321.039 252.962" stroke="#3B1534" stroke-width="5" stroke-miterlimit="10" stroke-linecap="round"/>
<path d="M228.149 177.688C228.107 169.039 228.063 160.386 228.017 151.729" stroke="#3B1534" stroke-width="5" stroke-miterlimit="10" stroke-linecap="round"/>
<path d="M375.323 303.401L309.106 344.857" stroke="#3B1534" stroke-width="5" stroke-miterlimit="10" stroke-linecap="round"/>
<path d="M357.518 288.463L301.278 324.694C300.144 325.428 299.358 326.568 299.092 327.863C298.826 329.159 299.102 330.503 299.86 331.601L309.157 344.929L375.58 303.086L364.362 289.492C363.558 288.527 362.411 287.886 361.145 287.696C359.88 287.505 358.586 287.779 357.518 288.463Z" fill="#F2EADA"/>
<path d="M354.585 290.356C344.756 273.817 340.29 256.432 333.681 238.328L333.355 237.431C333.355 237.431 330.965 230.789 326.659 234.664C326.659 234.664 322.977 237.315 326.459 257.523C326.579 258.187 326.716 258.851 326.877 259.51C327.408 261.724 328.626 267.563 327.048 268.404C327.048 268.404 323.046 273.424 305.807 258.923L286.138 242.999C286.138 242.999 279.276 237.027 275.074 239.966C275.074 239.966 273.021 241.294 273.313 243.187C270.877 240.879 268.058 237.193 264.873 235.942C259.647 233.889 256.68 239.878 258.235 243.852C257.961 243.143 255.828 242.855 255.233 242.866C252.54 242.927 251.168 245.34 251.065 247.698C251.046 249.649 251.395 251.586 252.094 253.416C252.455 254.434 255.685 261.906 256.669 261.668C256.669 261.668 250.379 263.185 256.766 273.137C263.604 282.705 272.528 290.704 282.907 296.571L286.818 298.658C296.087 303.595 304.32 310.491 312.439 317.51L354.585 290.356Z" fill="#F774AA"/>
<path d="M273.302 243.187C273.302 243.187 280.941 259.493 296.979 267.629" stroke="#3B1534" stroke-width="5" stroke-miterlimit="10" stroke-linecap="round"/>
<path d="M258.224 243.852C258.224 243.852 265.748 268.792 288.407 277.216" stroke="#3B1534" stroke-width="5" stroke-miterlimit="10" stroke-linecap="round"/>
<path d="M255.914 261.253C255.914 261.253 267.704 280.138 282.862 286.387" stroke="#3B1534" stroke-width="5" stroke-miterlimit="10" stroke-linecap="round"/>
<path d="M350.028 75.3372C351.222 71.9433 350.975 68.2292 349.341 65.0116C347.707 61.794 344.819 59.3364 341.314 58.1791C337.807 57.0233 333.97 57.2632 330.646 58.8461C327.321 60.429 324.783 63.2253 323.589 66.6198L317.614 83.5842L344.058 92.3071L350.028 75.3372Z" fill="#F2EADA"/>
<path d="M317.614 83.5841L311.645 100.543C311.053 102.224 310.809 104.001 310.927 105.773C311.045 107.545 311.522 109.277 312.331 110.871C313.966 114.089 316.854 116.547 320.361 117.704C323.868 118.861 327.706 118.621 331.03 117.039C334.355 115.457 336.894 112.66 338.089 109.266L344.058 92.3071L317.614 83.5841Z" fill="#77C8D6"/>
<path d="M43.1918 27.2281C39.8335 25.7134 35.9913 25.5517 32.5099 26.7785C29.0284 28.0053 26.1928 30.5202 24.6263 33.7703C23.0635 37.0221 22.8981 40.7414 24.1664 44.1112C25.4347 47.4809 28.033 50.2255 31.3904 51.742L48.1662 59.286L59.9619 34.7721L43.1918 27.2281Z" fill="#F2EADA"/>
<path d="M76.7375 42.3605L59.9617 34.7943L48.166 59.2861L64.9361 66.8522C68.2951 68.3666 72.1379 68.5275 75.6194 67.2996C79.1009 66.0717 81.9361 63.5556 83.5016 60.3045C85.0585 57.0561 85.2207 53.3425 83.9526 49.9785C82.6845 46.6145 80.0897 43.8748 76.7375 42.3605Z" fill="#FFACD2"/>
<path d="M357.249 306.185C359.295 306.185 360.954 304.579 360.954 302.599C360.954 300.618 359.295 299.012 357.249 299.012C355.203 299.012 353.544 300.618 353.544 302.599C353.544 304.579 355.203 306.185 357.249 306.185Z" fill="#77C8D6"/>
<path d="M108.494 160.308C107.614 158.706 106.41 157.292 104.953 156.15C103.497 155.007 101.818 154.16 100.016 153.66C98.2145 153.159 96.3272 153.014 94.4665 153.234C92.6059 153.454 90.81 154.034 89.1858 154.94C87.5617 155.846 86.1425 157.059 85.0129 158.507C83.8833 159.955 83.0662 161.608 82.6105 163.368C82.1548 165.128 82.0697 166.959 82.3603 168.752C82.6509 170.544 83.3112 172.262 84.3019 173.802L93.536 189.3L117.745 175.806L108.494 160.308Z" fill="#F2EADA"/>
<path d="M117.728 175.828L93.519 189.322L102.753 204.853C103.666 206.394 104.885 207.745 106.338 208.829C107.791 209.914 109.452 210.71 111.223 211.173C112.995 211.635 114.843 211.755 116.663 211.526C118.483 211.296 120.238 210.721 121.828 209.834C123.419 208.95 124.815 207.771 125.935 206.364C127.055 204.957 127.878 203.35 128.356 201.635C128.834 199.92 128.958 198.131 128.721 196.369C128.483 194.608 127.89 192.909 126.973 191.37L117.728 175.828Z" fill="#FFACD2"/>
<path d="M20.5324 163.557C31.8721 163.557 41.0647 154.659 41.0647 143.682C41.0647 132.705 31.8721 123.806 20.5324 123.806C9.19265 123.806 0 132.705 0 143.682C0 154.659 9.19265 163.557 20.5324 163.557Z" fill="#F2EADA"/>
<path d="M27.8796 127.387L10.7607 158.864" stroke="#77C8D6" stroke-width="5" stroke-miterlimit="10" stroke-linecap="round"/>
<path d="M333.017 215.253C344.357 215.253 353.55 206.354 353.55 195.377C353.55 184.4 344.357 175.502 333.017 175.502C321.677 175.502 312.485 184.4 312.485 195.377C312.485 206.354 321.677 215.253 333.017 215.253Z" fill="#F2EADA"/>
<path d="M315.824 187.036L350.279 203.752" stroke="#77C8D6" stroke-width="5" stroke-miterlimit="10" stroke-linecap="round"/>
<path d="M226.931 219.255C228.674 219.255 230.087 217.887 230.087 216.199C230.087 214.512 228.674 213.144 226.931 213.144C225.187 213.144 223.774 214.512 223.774 216.199C223.774 217.887 225.187 219.255 226.931 219.255Z" fill="#F2EADA"/>
<path d="M226.931 242.468C228.674 242.468 230.087 241.1 230.087 239.413C230.087 237.725 228.674 236.357 226.931 236.357C225.187 236.357 223.774 237.725 223.774 239.413C223.774 241.1 225.187 242.468 226.931 242.468Z" fill="#F2EADA"/>
<path d="M284.897 42.7312C284.897 33.0091 280.907 23.6851 273.806 16.8106C266.704 9.93596 257.072 6.07385 247.028 6.07385H169.439V42.7312H243.478V56.0149C243.478 61.2408 245.622 66.2526 249.44 69.9478C253.257 73.6431 258.434 75.719 263.833 75.719H275.64V42.7312H284.897Z" fill="#BD4632"/>
<path d="M267.263 109.426C277.937 109.426 286.589 101.051 286.589 90.7186C286.589 80.3865 277.937 72.0107 267.263 72.0107C256.59 72.0107 247.938 80.3865 247.938 90.7186C247.938 101.051 256.59 109.426 267.263 109.426Z" fill="#F774AA"/>
<path d="M267.681 97.1335C270.368 97.1335 272.547 95.0247 272.547 92.4233C272.547 89.822 270.368 87.7131 267.681 87.7131C264.994 87.7131 262.815 89.822 262.815 92.4233C262.815 95.0247 264.994 97.1335 267.681 97.1335Z" stroke="#3B1534" stroke-width="5" stroke-miterlimit="10" stroke-linecap="round"/>
<path d="M273.759 83.3295C273.759 83.3295 264.805 84.5582 263.335 90.3089" stroke="#3B1534" stroke-width="5" stroke-miterlimit="10" stroke-linecap="round"/>
<path d="M195.775 164.631L228.149 177.688L260.528 164.631" stroke="#3B1534" stroke-width="5" stroke-miterlimit="10" stroke-linecap="round"/>
<path d="M47.4228 349.152C30.1381 370.102 16.3756 402.625 36.0846 423.32C36.2847 423.469 36.5706 423.685 36.9194 423.934C41.8916 427.46 47.5866 429.913 53.6208 431.129C58.9998 432.275 64.54 432.533 70.0078 431.893C83.0214 430.393 93.8908 425.074 102.399 415.377C107.43 409.643 111.261 403.112 115.584 396.907L136.682 366.659L152.051 344.625L85.5257 302.986L47.4228 349.152Z" fill="#77C8D6"/>
<path d="M413.592 349.152L375.586 303.097L309.163 344.94L324.309 366.659L345.408 396.913C349.73 403.117 353.567 409.643 358.593 415.382C367.101 425.08 377.97 430.399 390.989 431.899C396.461 432.54 402.005 432.282 407.388 431.135C413.423 429.921 419.118 427.467 424.089 423.939C424.438 423.69 424.724 423.474 424.924 423.325C444.639 402.625 430.882 370.102 413.592 349.152Z" fill="#77C8D6"/>
<path d="M375.586 303.097L428.955 367.661" stroke="#3B1534" stroke-width="5" stroke-miterlimit="10" stroke-linecap="round"/>
<path d="M106.715 291.036C114.8 272.721 120.724 256.432 127.333 238.306L127.659 237.409C127.659 237.409 130.049 230.767 134.355 234.642C134.355 234.642 138.037 237.293 134.555 257.5C134.441 258.165 134.298 258.829 134.138 259.488C133.606 261.701 132.388 267.541 133.966 268.382C133.966 268.382 137.968 273.402 155.207 258.901L174.888 242.983C174.888 242.983 181.749 237.01 185.952 239.949C185.952 239.949 188.01 241.278 187.713 243.171C190.148 240.863 192.973 237.176 196.158 235.926C201.378 233.872 204.345 239.861 202.79 243.835C203.07 243.126 205.197 242.839 205.792 242.85C208.485 242.911 209.857 245.324 209.96 247.682C209.979 249.632 209.63 251.57 208.931 253.399C208.571 254.418 205.34 261.89 204.357 261.652C204.357 261.652 210.646 263.168 204.26 273.12C197.421 282.688 188.498 290.688 178.118 296.554L174.207 298.641C164.939 303.578 158.346 309.916 149.209 317.919L106.715 291.036Z" fill="#F774AA"/>
<path d="M187.713 243.187C187.713 243.187 180.08 259.493 164.036 267.629" stroke="#3B1534" stroke-width="5" stroke-miterlimit="10" stroke-linecap="round"/>
<path d="M202.79 243.852C202.79 243.852 195.272 268.792 172.612 277.216" stroke="#3B1534" stroke-width="5" stroke-miterlimit="10" stroke-linecap="round"/>
<path d="M205.1 261.253C205.1 261.253 193.311 280.127 178.153 286.387" stroke="#3B1534" stroke-width="5" stroke-miterlimit="10" stroke-linecap="round"/>
<path d="M219.464 87.7353L149.547 99.7349L148.352 129.07C148.224 132.185 148.814 135.29 150.08 138.157C151.346 141.024 153.256 143.582 155.672 145.645C158.087 147.708 160.947 149.224 164.044 150.084C167.14 150.943 170.396 151.123 173.573 150.611L195.232 145.63L222.831 125.151C223.157 124.911 223.418 124.599 223.593 124.24C223.767 123.882 223.849 123.488 223.832 123.092L222.465 90.0544C222.447 89.7033 222.352 89.3598 222.187 89.0469C222.021 88.734 221.789 88.4588 221.505 88.2394C221.221 88.0201 220.892 87.8618 220.54 87.7748C220.188 87.6879 219.821 87.6744 219.464 87.7353Z" fill="#F2EADA"/>
<path d="M150.25 113.5L198.205 104.998" stroke="#77C8D6" stroke-width="5" stroke-miterlimit="10" stroke-linecap="round"/>
<path d="M149.547 129.059L179.725 123.026" stroke="#77C8D6" stroke-width="5" stroke-miterlimit="10" stroke-linecap="round"/>
<path d="M96.0122 290.278L85.5259 303.008L152.074 344.647C154.888 340.607 157.703 336.57 160.52 332.537C160.981 331.875 161.302 331.132 161.465 330.35C161.628 329.568 161.63 328.762 161.471 327.979C161.312 327.197 160.994 326.452 160.536 325.788C160.079 325.125 159.49 324.555 158.804 324.113C146.545 316.214 116.139 296.632 104.36 289.038C103.061 288.197 101.482 287.857 99.937 288.087C98.3916 288.316 96.9912 289.098 96.0122 290.278Z" fill="#F2EADA"/>
<path d="M103.765 306.185C105.811 306.185 107.47 304.579 107.47 302.599C107.47 300.618 105.811 299.012 103.765 299.012C101.719 299.012 100.06 300.618 100.06 302.599C100.06 304.579 101.719 306.185 103.765 306.185Z" fill="#77C8D6"/>
<path d="M85.5256 302.986L38.4058 361.788" stroke="#3B1534" stroke-width="5" stroke-miterlimit="10" stroke-linecap="round"/>
</svg>
