<svg width="530" height="420" viewBox="0 0 530 420" fill="none" xmlns="http://www.w3.org/2000/svg">
<path d="M100.799 174.883L87.4498 173.78L73.5198 330.281H117.342L117.923 227.411C119.009 208.468 112.921 189.791 100.799 174.883V174.883Z" fill="#77C8D6"/>
<path d="M211.533 217.983C211.532 208.721 207.941 199.797 201.469 192.976C194.998 186.155 186.117 181.933 176.585 181.145L170.411 180.615C174.706 189.91 180.441 210.527 180.118 254.083V330.276H211.522L211.533 217.983Z" fill="#77C8D6"/>
<path d="M170.411 180.636L100.799 174.883C112.913 189.783 119.001 208.447 117.923 227.379L117.315 330.281H180.129V254.088C180.441 210.548 174.706 189.932 170.411 180.636Z" fill="#3B1534"/>
<path d="M188.789 161.658L114.138 156.09C108.554 155.676 103.369 153.131 99.7232 149.017C96.0774 144.902 94.2694 139.553 94.6969 134.148L97.8028 94.9991C98.1083 91.1516 99.1938 87.4002 100.997 83.9588C102.8 80.5175 105.286 77.4538 108.313 74.9425C111.34 72.4313 114.847 70.5217 118.636 69.3229C122.425 68.1241 126.421 67.6595 130.396 67.9557L172.356 71.063C175.443 71.2903 178.454 72.1046 181.215 73.4592C183.977 74.8139 186.436 76.6823 188.451 78.9576C190.467 81.2329 191.999 83.8705 192.96 86.7195C193.921 89.5685 194.293 92.573 194.053 95.5611L188.789 161.658Z" fill="#F2EADA"/>
<path d="M79.9617 158.843C92.2959 158.843 102.295 150.398 102.295 139.981C102.295 129.564 92.2959 121.12 79.9617 121.12C67.6275 121.12 57.6287 129.564 57.6287 139.981C57.6287 150.398 67.6275 158.843 79.9617 158.843Z" fill="#F2EADA"/>
<path d="M329.618 277.865L303.199 274.546L313.431 208.39C314.532 201.264 318.139 194.725 323.644 189.876C329.15 185.027 336.215 182.166 343.647 181.776L329.618 277.865Z" fill="#77C8D6"/>
<path d="M356.186 316.171L343.192 324.73C337.842 328.257 331.827 330.729 325.49 332.004C319.153 333.28 312.618 333.334 306.259 332.164C299.9 330.994 293.842 328.623 288.43 325.185C283.018 321.748 278.36 317.312 274.72 312.131L232.656 252.248C231.062 249.981 229.946 247.433 229.37 244.748C228.795 242.064 228.771 239.296 229.3 236.602C229.83 233.909 230.902 231.343 232.456 229.05C234.011 226.758 236.016 224.785 238.358 223.243L256.435 211.349C258.776 209.806 261.408 208.724 264.182 208.166C266.955 207.608 269.814 207.585 272.597 208.097C275.379 208.609 278.031 209.647 280.399 211.151C282.767 212.655 284.805 214.596 286.398 216.864L356.186 316.171Z" fill="#77C8D6"/>
<path d="M266.749 207.791C266.749 207.791 267.812 195.902 257.196 179.199C253.531 172.592 249.954 165.943 246.29 159.341C243.124 153.619 240.264 146.344 235.564 141.635C232.825 138.867 228.235 135.972 224.894 142.579C223.546 140.628 222.195 138.684 220.84 136.746C219.273 134.472 216.595 131.704 213.494 132.112C207.113 132.939 210.35 141.948 211.741 145.437C211.999 146.275 212.251 147.113 212.508 147.946C212.508 147.946 204.746 143.507 204.5 150.485C204.463 152.051 204.785 153.605 205.442 155.035L216.726 180.318C216.726 180.318 194.47 183.759 187.748 186.559C187.327 186.734 186.899 186.899 186.467 187.036C185.026 187.508 181.575 188.972 181.619 192.153C181.665 193.343 182.181 194.47 183.061 195.302C183.941 196.134 185.117 196.607 186.346 196.624C188.17 196.671 190.915 196.406 195.018 195.42C197.176 194.89 199.35 194.46 201.531 194.057L205.798 193.262C208.266 192.778 210.829 193.06 213.122 194.068C222.187 198.172 219.958 210.241 215.017 216.514C213.226 218.789 211.183 220.867 209.441 223.184C207.797 225.369 205.606 227.543 205.206 230.322C204.983 231.604 205.287 232.919 206.055 233.986C206.633 234.737 207.44 235.293 208.361 235.577C210.525 236.165 212.744 234.622 214.157 233.583C223.809 226.615 224.817 225.491 226.97 225.051C230.164 224.437 233.481 224.949 236.32 226.493L266.749 207.791Z" fill="#F774AA"/>
<path d="M239.185 177.492C239.185 177.492 230.026 196.857 248.755 206.126" stroke="#3B1534" stroke-width="5" stroke-miterlimit="10" stroke-linecap="round"/>
<path d="M224.894 142.595L235.466 165.052" stroke="#3B1534" stroke-width="5" stroke-miterlimit="10" stroke-linecap="round"/>
<path d="M212.59 148.068C216.363 155.629 220.139 163.189 223.918 170.747" stroke="#3B1534" stroke-width="5" stroke-miterlimit="10" stroke-linecap="round"/>
<path d="M198.518 198.644H159.149C156.117 198.644 153.66 201.023 153.66 203.957V236.605C153.66 239.54 156.117 241.919 159.149 241.919H198.518C201.549 241.919 204.006 239.54 204.006 236.605V203.957C204.006 201.023 201.549 198.644 198.518 198.644Z" fill="#F2EADA"/>
<path d="M161.105 231.653C161.171 232.42 161.532 233.135 162.118 233.657C162.703 234.178 163.47 234.468 164.265 234.468C165.061 234.468 165.828 234.178 166.413 233.657C166.998 233.135 167.36 232.42 167.426 231.653V220.035H161.105V231.653Z" stroke="#77C8D6" stroke-width="5" stroke-miterlimit="10" stroke-linecap="round"/>
<path d="M167.426 208.894C167.426 208.08 167.092 207.299 166.497 206.723C165.902 206.147 165.095 205.824 164.254 205.824C163.413 205.824 162.606 206.147 162.011 206.723C161.417 207.299 161.083 208.08 161.083 208.894V217.378H167.426V208.894Z" stroke="#77C8D6" stroke-width="5" stroke-miterlimit="10" stroke-linecap="round"/>
<path d="M182.178 208.894C182.178 208.08 181.843 207.299 181.249 206.723C180.654 206.147 179.847 205.824 179.006 205.824C178.165 205.824 177.358 206.147 176.763 206.723C176.168 207.299 175.834 208.08 175.834 208.894V217.378H182.178V208.894Z" stroke="#77C8D6" stroke-width="5" stroke-miterlimit="10" stroke-linecap="round"/>
<path d="M175.834 231.653C175.834 232.467 176.168 233.248 176.763 233.824C177.358 234.399 178.165 234.723 179.006 234.723C179.847 234.723 180.654 234.399 181.249 233.824C181.843 233.248 182.178 232.467 182.178 231.653V220.035H175.834V231.653Z" stroke="#77C8D6" stroke-width="5" stroke-miterlimit="10" stroke-linecap="round"/>
<path d="M196.913 208.894C196.913 208.08 196.579 207.299 195.984 206.723C195.389 206.147 194.582 205.824 193.741 205.824C192.9 205.824 192.093 206.147 191.499 206.723C190.904 207.299 190.57 208.08 190.57 208.894V217.378H196.913V208.894Z" stroke="#77C8D6" stroke-width="5" stroke-miterlimit="10" stroke-linecap="round"/>
<path d="M190.57 231.653C190.57 232.467 190.904 233.248 191.499 233.824C192.093 234.399 192.9 234.723 193.741 234.723C194.582 234.723 195.389 234.399 195.984 233.824C196.579 233.248 196.913 232.467 196.913 231.653V220.035H190.57V231.653Z" stroke="#77C8D6" stroke-width="5" stroke-miterlimit="10" stroke-linecap="round"/>
<path d="M168.833 216.084H159.724V221.403H168.833V216.084Z" fill="#FFACD2"/>
<path d="M183.552 216.084H174.454V221.403H183.552V216.084Z" fill="#FFACD2"/>
<path d="M198.277 216.084H189.189V221.403H198.277V216.084Z" fill="#FFACD2"/>
<path d="M407.808 155.963L402.111 156.605L394.475 93.09L422.845 89.9084L427.846 131.481C428.54 137.299 426.819 143.146 423.062 147.737C419.305 152.328 413.818 155.286 407.808 155.963V155.963Z" fill="#3B1534"/>
<path d="M510.898 177.945C519.014 166.232 506.211 144.152 482.302 128.629C458.392 113.106 432.431 110.018 424.315 121.731C416.2 133.444 429.003 155.524 452.912 171.047C476.821 186.57 502.782 189.658 510.898 177.945Z" fill="#3B1534"/>
<path d="M408.739 163.636L348.254 168.833C346.172 169.015 344.073 168.798 342.079 168.193C340.084 167.589 338.232 166.609 336.629 165.311C335.026 164.012 333.704 162.42 332.737 160.626C331.771 158.832 331.18 156.871 330.998 154.855L326.342 104.12L402.681 97.5603L408.739 163.636Z" fill="#F774AA"/>
<path d="M405.612 136.306C413.435 136.306 419.777 130.167 419.777 122.594C419.777 115.02 413.435 108.881 405.612 108.881C397.788 108.881 391.446 115.02 391.446 122.594C391.446 130.167 397.788 136.306 405.612 136.306Z" fill="#F774AA"/>
<path d="M405.08 128.633C407.431 128.633 409.337 126.789 409.337 124.513C409.337 122.238 407.431 120.393 405.08 120.393C402.73 120.393 400.824 122.238 400.824 124.513C400.824 126.789 402.73 128.633 405.08 128.633Z" stroke="#3B1534" stroke-width="5" stroke-miterlimit="10" stroke-linecap="round"/>
<path d="M410.399 116.586C410.399 116.586 402.566 117.646 401.284 122.689" stroke="#3B1534" stroke-width="5" stroke-miterlimit="10" stroke-linecap="round"/>
<path d="M349.097 150.761C349.097 150.761 353.507 154.919 359.429 149.865" stroke="#3B1534" stroke-width="5" stroke-miterlimit="10" stroke-linecap="round"/>
<path d="M435.291 209.249C435.532 201.576 436.611 190.133 444.97 180.387C447.588 177.327 454.447 174.554 456.413 173.25C446.071 173.743 430.744 174.687 420.095 175.371C419.332 178.361 418.569 181.352 417.806 184.343C413.33 201.841 411.49 224.526 390.137 230.274C374.854 234.384 357.358 225.316 358.119 208.613C358.442 201.56 360.858 194.826 362.617 188.065C363.345 185.308 364.019 182.535 364.682 179.756C357.462 180.435 350.319 181.142 343.253 181.877L323.839 239.856C323.839 239.856 317.814 263.484 323.839 283.624L336.657 336.814L443.874 339.556C446.044 319.957 448.215 300.359 450.388 280.76L437.405 228.339C435.808 222.098 435.097 215.676 435.291 209.249V209.249Z" fill="#F2EADA"/>
<path d="M358.13 208.613C357.369 225.316 374.865 234.383 390.148 230.274C411.511 224.526 413.341 201.841 417.816 184.343C418.576 181.352 419.339 178.361 420.106 175.371C413.306 175.812 406.446 176.292 399.526 176.808C387.719 177.698 376.108 178.681 364.692 179.756C364.03 182.534 363.356 185.308 362.627 188.065C360.847 194.847 358.453 201.56 358.13 208.613Z" fill="#77C8D6"/>
<path d="M334.225 295.783C333.737 295.783 333.269 295.595 332.923 295.261C332.578 294.927 332.384 294.473 332.384 294.001V288.428H336.065V294.001C336.066 294.235 336.019 294.467 335.927 294.684C335.834 294.9 335.699 295.097 335.528 295.262C335.357 295.428 335.154 295.559 334.93 295.648C334.706 295.738 334.467 295.783 334.225 295.783V295.783Z" fill="#FFACD2"/>
<path d="M338.3 257.566C338.299 256.521 337.869 255.518 337.105 254.778C336.341 254.039 335.305 253.623 334.225 253.621V253.621C333.144 253.623 332.109 254.039 331.345 254.778C330.581 255.518 330.151 256.521 330.149 257.566V280.495H338.3V257.566Z" fill="#3B1534"/>
<path d="M330.149 280.495V286.662C330.149 287.13 330.342 287.579 330.684 287.911C331.026 288.242 331.49 288.428 331.974 288.428H336.482C336.721 288.428 336.958 288.382 337.179 288.293C337.4 288.204 337.601 288.074 337.77 287.91C337.939 287.746 338.072 287.551 338.164 287.337C338.255 287.123 338.301 286.894 338.3 286.662V280.495H330.149Z" fill="#FFACD2"/>
<path d="M376.514 335.727V276.905" stroke="#3B1534" stroke-width="5" stroke-miterlimit="10" stroke-linecap="round"/>
<path d="M403.421 267.048L386.538 241.128C385.333 239.24 383.614 237.71 381.57 236.706C379.329 235.646 376.399 235.025 373.632 236.881C373.632 236.881 366.549 230.518 360.387 234.203C360.387 234.203 352.718 230.391 346.917 235.03C344.293 237.151 341.647 239.214 338.832 241.07L329.021 247.523C329.021 247.523 324.732 249.968 328.112 252.975C328.112 252.975 329.755 254.708 335.189 252.545C336.159 252.153 337.128 251.76 338.114 251.4L344.627 249.035C345.761 248.621 347.007 248.593 348.16 248.955C349.313 249.318 350.304 250.049 350.971 251.028V251.028C351.616 251.972 352.041 253.041 352.217 254.16C352.393 255.279 352.315 256.422 351.989 257.509C351.664 258.596 351.098 259.601 350.331 260.455C349.564 261.31 348.614 261.992 347.547 262.456C346.616 262.853 345.641 263.256 344.638 263.638C340.889 265.067 336.95 265.974 332.938 266.332C330.807 266.523 327.838 267.016 325.877 268.273C325.336 268.631 324.9 269.117 324.608 269.685C324.317 270.252 324.181 270.883 324.213 271.516C324.244 272.149 324.443 272.764 324.79 273.302C325.137 273.84 325.621 274.282 326.194 274.588C328.511 275.872 331.097 276.634 333.759 276.815C341.106 277.335 348.213 279.571 354.471 283.332C362.737 288.216 373.501 293.407 379.872 291.816L403.421 267.048Z" fill="#F774AA"/>
<path d="M360.381 234.203L372.975 252.587" stroke="#3B1534" stroke-width="5" stroke-miterlimit="10" stroke-linecap="round"/>
<path d="M373.627 236.881L379.822 245.71" stroke="#3B1534" stroke-width="5" stroke-miterlimit="10" stroke-linecap="round"/>
<path d="M513.76 314.676C513.294 315.482 502.64 333.235 481.309 333.712C474.367 333.841 467.52 332.137 461.502 328.784C455.485 325.43 450.525 320.553 447.155 314.676C443.12 281.729 439.084 248.78 435.049 215.83C430.59 196.056 439.01 176.288 459.436 171.977C463.232 171.282 472.873 170.058 482.925 174.862C501.062 183.532 503.686 203.777 503.867 205.378C509.109 238.785 509.29 280.198 514.532 313.589C514.57 313.831 514.511 314.078 514.368 314.28C514.224 314.482 514.007 314.623 513.76 314.676V314.676Z" fill="#77C8D6"/>
<path d="M478.412 350.394C462.641 354.366 445.851 351.19 432.442 342.223L382.046 308.519C376.678 304.93 374.958 298.254 378.086 293.142L395.346 264.81C398.436 259.746 405.239 257.837 411.133 260.377L504.634 300.677C508.732 302.452 511.938 305.727 513.548 309.785C515.159 313.842 515.044 318.352 513.229 322.327C506.606 336.745 493.574 346.576 478.412 350.394Z" fill="#77C8D6"/>
<path d="M361.976 322.545C364.112 322.545 365.843 320.869 365.843 318.802C365.843 316.734 364.112 315.058 361.976 315.058C359.84 315.058 358.108 316.734 358.108 318.802C358.108 320.869 359.84 322.545 361.976 322.545Z" fill="#3B1534"/>
<path d="M361.976 296.848C364.112 296.848 365.843 295.172 365.843 293.105C365.843 291.037 364.112 289.361 361.976 289.361C359.84 289.361 358.108 291.037 358.108 293.105C358.108 295.172 359.84 296.848 361.976 296.848Z" fill="#3B1534"/>
<path d="M171.654 172.094L113.398 162.719L121.198 103.775C121.412 102.163 121.954 100.608 122.794 99.2015C123.634 97.7946 124.754 96.5635 126.091 95.58C127.427 94.5964 128.952 93.8801 130.577 93.4726C132.202 93.0652 133.894 92.9748 135.556 93.2067L185.064 100.148C187.374 100.47 189.473 101.627 190.938 103.386C192.403 105.145 193.127 107.375 192.963 109.629L189.435 158.508C189.282 160.566 188.688 162.571 187.69 164.394C186.692 166.217 185.313 167.818 183.64 169.097C181.967 170.375 180.037 171.302 177.973 171.818C175.91 172.334 173.758 172.428 171.654 172.094Z" fill="#F774AA"/>
<path d="M159.346 154.998L115.299 149.033L112.423 168.912L156.415 175.27L159.346 154.998Z" fill="#F774AA"/>
<path d="M112.423 168.912L111.081 178.187L155.128 184.152L156.415 175.27L112.423 168.912Z" fill="#3B1534"/>
<path d="M128.38 185.902L130.5 172.82" stroke="#77C8D6" stroke-width="5" stroke-miterlimit="10" stroke-linecap="round"/>
<path d="M141.992 187.964L144.112 174.883" stroke="#77C8D6" stroke-width="5" stroke-miterlimit="10" stroke-linecap="round"/>
<path d="M144.879 104.485L184.418 109.29" stroke="#3B1534" stroke-width="5" stroke-miterlimit="10" stroke-linecap="round"/>
<path d="M149.464 112.731L178.589 115.849" stroke="#3B1534" stroke-width="5" stroke-miterlimit="10" stroke-linecap="round"/>
<path d="M116.126 136.296C123.142 136.296 128.829 130.79 128.829 123.999C128.829 117.208 123.142 111.702 116.126 111.702C109.11 111.702 103.423 117.208 103.423 123.999C103.423 130.79 109.11 136.296 116.126 136.296Z" fill="#F774AA"/>
<path d="M160.688 149.711C160.688 149.711 164.555 154.738 171.025 151.079" stroke="#3B1534" stroke-width="5" stroke-miterlimit="10" stroke-linecap="round"/>
<path d="M155.923 138.496C155.923 138.496 147.908 148.147 153.184 160.598" stroke="#3B1534" stroke-width="5" stroke-miterlimit="10" stroke-linecap="round"/>
<path d="M178.453 141.614C180.374 146.182 180.626 151.249 179.165 155.974C178.263 158.741 176.77 161.294 174.782 163.466" stroke="#3B1534" stroke-width="5" stroke-miterlimit="10" stroke-linecap="round"/>
<path d="M117.923 129.36C120.273 129.36 122.179 127.515 122.179 125.24C122.179 122.964 120.273 121.12 117.923 121.12C115.572 121.12 113.666 122.964 113.666 125.24C113.666 127.515 115.572 129.36 117.923 129.36Z" stroke="#3B1534" stroke-width="5" stroke-miterlimit="10" stroke-linecap="round"/>
<path d="M112.609 117.286C112.609 117.286 120.437 118.346 121.724 123.389" stroke="#3B1534" stroke-width="5" stroke-miterlimit="10" stroke-linecap="round"/>
<path d="M78.0334 292.548C72.446 307.586 57.7984 317.56 41.8799 317.375C24.2906 317.168 8.71174 304.585 5.12378 287.15L8.95824 238.949C9.69128 229.681 12.3031 220.643 16.6444 212.352C20.9858 204.061 26.9717 196.679 34.2604 190.627C41.5491 184.576 49.9978 179.973 59.124 177.083C68.2503 174.192 77.8754 173.07 87.4498 173.78V173.78L78.0334 292.548Z" fill="#77C8D6"/>
<path d="M152.307 342.403C152.257 344.053 151.56 345.622 150.359 346.793C149.158 347.963 147.541 348.648 145.838 348.708L54.3857 351.964C47.3202 352.249 40.2724 351.082 33.707 348.538C23.2374 344.442 14.6172 336.87 9.39099 327.179C5.31523 319.494 3.4927 310.874 4.12134 302.257C4.48653 296.954 4.85171 291.652 5.2169 286.349L147.306 298.116C149.024 298.248 150.625 299.015 151.776 300.258C152.927 301.5 153.541 303.123 153.49 304.792L152.307 342.403Z" fill="#77C8D6"/>
<path d="M136.043 303.222V342.525" stroke="#3B1534" stroke-width="5" stroke-miterlimit="10" stroke-linecap="round"/>
<path d="M153.09 302.458C153.09 302.458 191.216 300.274 215.504 304.617C217.92 305.046 220.33 305.497 222.762 305.847C226.192 306.345 232.354 308.169 232.469 314.829C234.758 314.979 236.979 315.64 238.96 316.76V316.76C239.918 317.309 240.743 318.052 241.378 318.938C242.013 319.824 242.444 320.831 242.641 321.893C242.864 323.015 242.753 324.174 242.324 325.238C240.965 328.505 236.506 330.456 232.069 329.009C232.989 331.999 232.195 333.781 231.867 334.401C229.988 337.912 224.57 338.431 221.722 338.543C220.166 338.602 218.608 338.552 217.06 338.394L194.902 336.22C194.902 336.22 198.008 344.1 186.105 343.416C184.916 343.352 183.728 343.278 182.539 343.246L152.285 342.387L153.09 302.458Z" fill="#F774AA"/>
<path d="M198.167 311.791C204.47 312.364 210.777 312.929 217.088 313.488C222.2 313.937 227.327 314.384 232.469 314.83" stroke="#3B1534" stroke-width="5" stroke-miterlimit="10" stroke-linecap="round"/>
<path d="M198.26 324.321C203.103 324.71 208.113 325.217 213.292 325.843C219.865 326.654 226.137 327.614 232.091 328.669" stroke="#3B1534" stroke-width="5" stroke-miterlimit="10" stroke-linecap="round"/>
<path d="M178.381 334.481C180.342 334.672 182.314 334.873 184.292 335.075C187.856 335.446 191.395 335.833 194.908 336.236" stroke="#3B1534" stroke-width="5" stroke-miterlimit="10" stroke-linecap="round"/>
<path d="M102.777 281.842C105.194 281.842 107.154 279.945 107.154 277.605C107.154 275.265 105.194 273.368 102.777 273.368C100.36 273.368 98.4001 275.265 98.4001 277.605C98.4001 279.945 100.36 281.842 102.777 281.842Z" fill="#3B1534"/>
<path d="M83.21 240.985L78.0334 292.548" stroke="#3B1534" stroke-width="5" stroke-miterlimit="10" stroke-linecap="round"/>
<path d="M424.779 107.147L341.954 114.269C336.547 114.732 331.17 113.098 327.007 109.725C322.843 106.352 320.234 101.517 319.753 96.2823L319.479 93.3234C319 88.0886 320.688 82.8839 324.173 78.8537C327.657 74.8236 332.652 72.2979 338.06 71.8319L393.046 67.1073C396.702 66.7911 400.387 67.1756 403.89 68.2388C407.393 69.3021 410.645 71.0232 413.461 73.3038C416.276 75.5843 418.599 78.3797 420.298 81.53C421.997 84.6803 423.037 88.1238 423.36 91.6637L424.779 107.147Z" fill="#3B1534"/>
<path d="M479.633 290.634L442.768 274.821" stroke="#3B1534" stroke-width="5" stroke-miterlimit="10" stroke-linecap="round"/>
<path d="M408.58 160.21L364.066 164.033L365.615 180.93L410.128 177.107L408.58 160.21Z" fill="#F774AA"/>
<path d="M364.413 167.491L387.464 165.015C387.739 164.99 388.014 165.062 388.239 165.218C388.464 165.373 388.624 165.601 388.691 165.861C388.757 166.12 388.725 166.394 388.6 166.633C388.476 166.872 388.267 167.06 388.012 167.162L365.213 176.5L364.413 167.491Z" fill="#3B1534"/>
<path d="M307.477 246.876L316.975 260.393" stroke="#3B1534" stroke-width="5" stroke-miterlimit="10" stroke-linecap="round"/>
<path d="M118.049 295.82L50.9402 290.634" stroke="#3B1534" stroke-width="5" stroke-miterlimit="10" stroke-linecap="round"/>
<path d="M95.3213 126.295C95.3213 126.295 101.681 131.195 102.108 137.616" stroke="#3B1534" stroke-width="5" stroke-miterlimit="10" stroke-linecap="round"/>
<path d="M157.209 169.771L156.415 175.27L134.504 167.274C134.363 167.226 134.246 167.128 134.176 167C134.107 166.872 134.089 166.724 134.128 166.584C134.167 166.445 134.259 166.324 134.386 166.248C134.512 166.171 134.664 166.143 134.811 166.171L157.209 169.771Z" fill="#3B1534"/>
</svg>
